<svg width="184" height="251" viewBox="0 0 184 251" fill="none" xmlns="http://www.w3.org/2000/svg">
<path opacity="0.7" d="M80.6412 240.844C83.3769 233.118 83.1741 225.271 80.0649 218.745C75.2255 208.583 64.4232 203.232 53.8003 205.731C48.6815 206.933 41.4133 210.482 35.8412 220.578C31.0184 229.318 28.5598 241.085 28.5421 255.55L28.5108 281.814C28.5104 283.708 29.5847 285.43 31.278 286.243C32.9714 287.056 34.9896 286.823 36.4657 285.632L61.3774 265.63C71.0999 257.823 77.5804 249.481 80.6412 240.844ZM55.2851 257.922L38.3467 271.524L38.3631 255.482C38.3961 228.934 47.4776 217.345 55.9614 215.352C58.9284 214.656 61.9239 215.039 64.5535 216.302C67.3498 217.645 69.7334 219.984 71.2002 223.071C74.8806 230.79 72.6265 243.998 55.2851 257.922ZM131.829 235.823C131.624 237.887 132.721 239.845 134.572 240.734C136.425 241.624 138.639 241.25 140.12 239.805C165.01 215.49 172.32 178.011 158.455 146.289C164.746 136.937 169.971 126.859 173.964 116.195C187.273 80.6873 186.265 40.6236 171.132 3.37902C170.184 1.04838 167.636 -0.175198 165.225 0.541903C126.697 12.0104 94.8014 36.2729 75.4015 68.86C69.5752 78.6428 64.9763 89.0207 61.6084 99.7809C28.1631 108.793 3.50479 137.863 0.0846685 172.547C-0.119941 174.611 0.977113 176.569 2.82799 177.458C4.68108 178.348 6.8952 177.975 8.37595 176.529C21.1291 164.072 37.6711 156.766 55.2852 155.735C55.7037 161.358 56.438 166.995 57.4819 172.623C54.0577 173.549 51.3685 175.423 49.9039 178.473C45.4019 187.847 56.7409 199.33 70.2654 205.825C83.79 212.32 99.8408 213.992 104.343 204.618C105.806 201.57 105.587 198.296 104.171 195.046C109.21 192.345 114.067 189.396 118.717 186.208C128.798 200.483 133.558 218.329 131.829 235.821L131.829 235.823ZM141.792 222.845C140.722 207.637 135.478 192.813 126.683 180.388C135.978 173.101 144.322 164.822 151.568 155.71C159.391 178.336 155.611 203.484 141.793 222.844L141.792 222.845ZM163.672 11.3648C169.551 27.0585 172.7 42.9308 173.324 58.4928L120.855 33.2943C133.389 24.0521 147.752 16.5846 163.672 11.3648ZM12.3045 160.594C18.785 137.705 36.029 119.076 58.5779 111.045C55.9963 122.392 54.7506 134.079 54.8739 145.89C39.5012 146.775 24.8408 151.863 12.3034 160.596L12.3045 160.594ZM74.5653 196.904C63.36 191.523 58.451 184.587 58.7584 182.724C60.0167 181.315 68.4977 180.813 79.7076 186.197C90.9169 191.58 95.8219 198.514 95.5145 200.377C94.2562 201.786 85.7707 202.286 74.5653 196.904ZM83.9921 177.276C78.5704 174.672 72.7386 172.842 67.4146 172.19C57.377 120.964 75.2602 72.0985 112.273 40.1435L173.348 69.4751C171.541 118.339 144.587 162.84 98.3292 187.037C94.4856 183.286 89.4184 179.882 83.9921 177.276ZM137.877 65.0747C124.908 58.846 109.233 64.4315 102.942 77.5321C96.6501 90.6327 102.087 106.352 115.061 112.582C128.035 118.813 143.705 113.226 149.995 100.13C156.284 87.028 150.849 71.3045 137.877 65.0747ZM119.347 103.659C111.249 99.7702 107.855 89.9521 111.781 81.7771C115.707 73.6021 125.493 70.1108 133.591 74.0001C141.689 77.8893 145.083 87.7074 141.156 95.8847C137.229 104.062 127.445 107.549 119.347 103.659Z" fill="url(#paint0_linear_3794_2121)" fill-opacity="0.6"/>
<defs>
<linearGradient id="paint0_linear_3794_2121" x1="198.242" y1="-63.1234" x2="31.5745" y2="286.385" gradientUnits="userSpaceOnUse">
<stop stop-color="#00A3FF" stop-opacity="0.5"/>
<stop offset="0.530072" stop-color="#71CCFF" stop-opacity="0.278636"/>
<stop offset="1" stop-color="white" stop-opacity="0"/>
</linearGradient>
</defs>
</svg>
