<svg width="171" height="171" viewBox="0 0 171 171" fill="none" xmlns="http://www.w3.org/2000/svg">
<path d="M170.134 170.151V21.996L122.519 0.837891L43.1545 21.996L0.826172 0.837891V148.981L43.1545 170.139L122.513 148.981L170.134 170.151Z" fill="#2E3ECD"/>
<path d="M122.519 148.987L170.134 170.145V22.0079L122.519 0.849809V148.987ZM43.1545 22.0019L0.826172 0.84375V148.987L43.1545 170.145V22.0019Z" fill="#2E3ECD"/>
<path d="M156.294 27.7012L124.55 14.4789C123.475 14.0292 122.281 13.9481 121.155 14.2485L43.7252 34.8974L19.069 22.5663C18.2625 22.1604 17.3656 21.9679 16.4636 22.007C15.5616 22.0461 14.6846 22.3155 13.9163 22.7896C13.148 23.2638 12.5139 23.9268 12.0744 24.7154C11.635 25.5041 11.4049 26.3922 11.406 27.295V138.402C11.406 140.403 12.5397 142.24 14.3281 143.131L40.7849 156.366C41.9406 156.94 43.2652 157.075 44.5133 156.748L122.144 136.044L152.226 148.581C153.03 148.917 153.905 149.048 154.773 148.965C155.64 148.881 156.473 148.584 157.199 148.1C157.924 147.617 158.518 146.962 158.929 146.193C159.341 145.425 159.556 144.567 159.555 143.695V32.5876C159.558 31.5415 159.249 30.5183 158.668 29.6483C158.087 28.7782 157.261 28.1004 156.294 27.7012ZM148.976 99.2024L133.105 89.0962V74.4007L148.976 84.3189V99.2024ZM122.144 24.9367L148.976 36.116V78.0806L131.862 67.3803C131.461 67.1287 131.001 66.9891 130.528 66.976C130.056 66.963 129.588 67.0769 129.175 67.306C128.761 67.5351 128.416 67.871 128.177 68.2786C127.937 68.6862 127.811 69.1506 127.812 69.6234V85.7315L123.944 83.2701C123.478 82.9765 122.932 82.8346 122.381 82.8639C121.831 82.8932 121.303 83.0923 120.871 83.4338L107.642 94.0189C107.334 94.2672 107.085 94.581 106.913 94.9375C106.741 95.294 106.65 95.6843 106.648 96.0802V129.23L74.9046 137.693V98.7295C74.9034 98.3424 74.8177 97.9604 74.6533 97.61C74.4889 97.2596 74.2499 96.9494 73.9531 96.701C73.6562 96.4527 73.3087 96.2723 72.9348 96.1723C72.5609 96.0724 72.1697 96.0555 71.7885 96.1226L43.1856 101.324L21.9972 97.0865V60.0689L42.3248 66.8468C42.5933 66.9421 42.8765 66.9893 43.1614 66.9862H64.3195C65.0239 66.9858 65.6994 66.7069 66.1989 66.2102L76.7719 55.6251C77.2656 55.1286 77.5443 54.458 77.5479 53.7579V36.8192L106.648 29.0592V36.0796L95.0867 40.7053C94.7643 40.8343 94.4704 41.0255 94.2219 41.268C93.9733 41.5106 93.775 41.7997 93.6382 42.1189C93.5014 42.4381 93.4288 42.7811 93.4246 43.1284C93.4203 43.4756 93.4845 43.8203 93.6135 44.1427C93.7425 44.4652 93.9337 44.759 94.1763 45.0076C94.4188 45.2561 94.7079 45.4544 95.0271 45.5912C95.3463 45.728 95.6893 45.8006 96.0366 45.8049C96.3838 45.8091 96.7285 45.7449 97.051 45.6159L106.648 41.7784V49.308L95.0867 53.9337C94.7643 54.0626 94.4704 54.2539 94.2219 54.4964C93.9733 54.739 93.775 55.0281 93.6382 55.3473C93.5014 55.6665 93.4288 56.0095 93.4246 56.3567C93.4203 56.704 93.4845 57.0487 93.6135 57.3711C93.7425 57.6935 93.9337 57.9874 94.1763 58.2359C94.4188 58.4845 94.7079 58.6828 95.0271 58.8196C95.3463 58.9564 95.6893 59.029 96.0366 59.0332C96.3838 59.0375 96.7285 58.9733 97.051 58.8443L106.648 55.0067V62.5303L95.0867 67.162C94.7643 67.291 94.4704 67.4822 94.2219 67.7248C93.9733 67.9673 93.775 68.2565 93.6382 68.5757C93.5014 68.8949 93.4288 69.2379 93.4246 69.5851C93.4203 69.9324 93.4845 70.277 93.6135 70.5995C93.7425 70.9219 93.9337 71.2158 94.1763 71.4643C94.4188 71.7129 94.7079 71.9112 95.0271 72.048C95.3463 72.1848 95.6893 72.2574 96.0366 72.2616C96.3838 72.2658 96.7285 72.2016 97.051 72.0727L106.648 68.2351V77.5532L111.94 74.9099V27.6527L122.144 24.9367ZM40.7909 45.2582C41.9428 45.8402 43.2766 45.9736 44.5194 45.6402L72.2614 38.2439V52.6605L63.2283 61.6937H43.5858L21.9972 54.4914V35.8614L40.7909 45.2582ZM43.7313 146.005L21.9972 135.141V102.476L42.64 106.599C42.967 106.671 43.3056 106.675 43.6343 106.611L69.6121 101.882V139.094L43.7313 146.005ZM124.557 125.592C123.48 125.147 122.288 125.066 121.162 125.362L111.947 127.817V97.3533L122.695 88.7445L148.976 105.477V135.765L124.557 125.592Z" fill="#6BAFFF"/>
</svg>
