<svg width="184" height="251" viewBox="0 0 184 251" fill="none" xmlns="http://www.w3.org/2000/svg">
<path opacity="0.7" d="M102.655 240.844C99.9195 233.118 100.122 225.271 103.231 218.745C108.071 208.583 118.873 203.232 129.496 205.731C134.615 206.933 141.883 210.482 147.455 220.578C152.278 229.318 154.737 241.085 154.754 255.55L154.786 281.814C154.786 283.708 153.712 285.43 152.018 286.243C150.325 287.056 148.307 286.823 146.831 285.632L121.919 265.63C112.197 257.823 105.716 249.481 102.655 240.844ZM128.011 257.922L144.95 271.524L144.933 255.482C144.9 228.934 135.819 217.345 127.335 215.352C124.368 214.656 121.372 215.039 118.743 216.302C115.947 217.645 113.563 219.984 112.096 223.071C108.416 230.79 110.67 243.998 128.011 257.922ZM51.4676 235.823C51.6722 237.887 50.5751 239.845 48.7243 240.734C46.8712 241.624 44.657 241.25 43.1763 239.805C18.2861 215.49 10.976 178.011 24.8419 146.289C18.5504 136.937 13.3256 126.859 9.33218 116.195C-3.97647 80.6873 -2.96889 40.6236 12.1641 3.37902C13.1123 1.04838 15.66 -0.175198 18.0716 0.541903C56.5995 12.0104 88.495 36.2729 107.895 68.86C113.721 78.6428 118.32 89.0207 121.688 99.7809C155.133 108.793 179.792 137.863 183.212 172.547C183.416 174.611 182.319 176.569 180.468 177.458C178.615 178.348 176.401 177.975 174.92 176.529C162.167 164.072 145.625 156.766 128.011 155.735C127.593 161.358 126.858 166.995 125.814 172.623C129.239 173.549 131.928 175.423 133.393 178.473C137.894 187.847 126.555 199.33 113.031 205.825C99.5064 212.32 83.4556 213.992 78.9536 204.618C77.49 201.57 77.7092 198.296 79.1253 195.046C74.0863 192.345 69.2294 189.396 64.5789 186.208C54.4987 200.483 49.7387 218.329 51.4674 235.821L51.4676 235.823ZM41.5041 222.845C42.5746 207.637 47.8188 192.813 56.6132 180.388C47.3179 173.101 38.9748 164.822 31.728 155.71C23.9054 178.336 27.6849 203.484 41.503 222.844L41.5041 222.845ZM19.6243 11.3648C13.7455 27.0585 10.5968 42.9308 9.97273 58.4928L62.4413 33.2943C49.9076 24.0521 35.5442 16.5846 19.6243 11.3648ZM170.992 160.594C164.511 137.705 147.267 119.076 124.718 111.045C127.3 122.392 128.546 134.079 128.422 145.89C143.795 146.775 158.456 151.863 170.993 160.596L170.992 160.594ZM108.731 196.904C119.936 191.523 124.845 184.587 124.538 182.724C123.28 181.315 114.799 180.813 103.589 186.197C92.3795 191.58 87.4745 198.514 87.7818 200.377C89.0402 201.786 97.5257 202.286 108.731 196.904ZM99.3043 177.276C104.726 174.672 110.558 172.842 115.882 172.19C125.919 120.964 108.036 72.0985 71.0235 40.1435L9.94871 69.4751C11.7554 118.339 38.7099 162.84 84.9672 187.037C88.8108 183.286 93.878 179.882 99.3043 177.276ZM45.4189 65.0747C58.3884 58.846 74.0629 64.4315 80.3546 77.5321C86.6463 90.6327 81.2089 106.352 68.2349 112.582C55.2609 118.813 39.5909 113.226 33.3015 100.13C27.012 87.028 32.4472 71.3045 45.4189 65.0747ZM63.9496 103.659C72.0478 99.7702 75.4416 89.9521 71.5155 81.7771C67.5894 73.6021 57.8036 70.1108 49.7054 74.0001C41.6072 77.8893 38.2133 87.7074 42.1405 95.8847C46.0677 104.062 55.8513 107.549 63.9496 103.659Z" fill="url(#paint0_linear_3794_2122)" fill-opacity="0.6"/>
<defs>
<linearGradient id="paint0_linear_3794_2122" x1="-14.9456" y1="-63.1234" x2="151.722" y2="286.385" gradientUnits="userSpaceOnUse">
<stop stop-color="#00A3FF" stop-opacity="0.5"/>
<stop offset="0.530072" stop-color="#71CCFF" stop-opacity="0.278636"/>
<stop offset="1" stop-color="white" stop-opacity="0"/>
</linearGradient>
</defs>
</svg>
