<svg width="1314" height="311" viewBox="0 0 1314 311" fill="none" xmlns="http://www.w3.org/2000/svg">
<path d="M412.092 179L396.436 133.906H405.217L416.654 170.406H416.811L428.279 133.906H437.061L421.404 179H412.092ZM446.373 179.562C444.186 179.562 442.248 179.146 440.561 178.312C438.894 177.458 437.592 176.281 436.654 174.781C435.738 173.26 435.279 171.521 435.279 169.562V169.5C435.279 167.521 435.769 165.833 436.748 164.438C437.748 163.021 439.186 161.906 441.061 161.094C442.936 160.26 445.206 159.76 447.873 159.594L460.529 158.812V163.969L448.967 164.688C447.05 164.812 445.581 165.271 444.561 166.062C443.54 166.854 443.029 167.906 443.029 169.219V169.25C443.029 170.604 443.54 171.677 444.561 172.469C445.602 173.24 446.977 173.625 448.686 173.625C450.186 173.625 451.519 173.323 452.686 172.719C453.873 172.115 454.811 171.292 455.498 170.25C456.186 169.208 456.529 168.031 456.529 166.719V156.781C456.529 155.115 455.998 153.802 454.936 152.844C453.894 151.865 452.383 151.375 450.404 151.375C448.571 151.375 447.102 151.771 445.998 152.562C444.894 153.333 444.206 154.333 443.936 155.562L443.873 155.844H436.686L436.717 155.469C436.883 153.51 437.54 151.76 438.686 150.219C439.831 148.656 441.415 147.427 443.436 146.531C445.477 145.635 447.894 145.188 450.686 145.188C453.456 145.188 455.852 145.646 457.873 146.562C459.915 147.479 461.488 148.76 462.592 150.406C463.717 152.052 464.279 153.99 464.279 156.219V179H456.529V173.906H456.342C455.717 175.052 454.904 176.052 453.904 176.906C452.904 177.76 451.758 178.417 450.467 178.875C449.196 179.333 447.831 179.562 446.373 179.562ZM470.811 179V133.906H478.592V179H470.811ZM485.217 179V145.875H492.967V151.062H493.154C494.008 149.271 495.279 147.844 496.967 146.781C498.675 145.719 500.779 145.188 503.279 145.188C506.925 145.188 509.738 146.292 511.717 148.5C513.717 150.708 514.717 153.729 514.717 157.562V179H506.936V159.125C506.936 156.771 506.383 154.958 505.279 153.688C504.175 152.396 502.519 151.75 500.311 151.75C498.831 151.75 497.54 152.094 496.436 152.781C495.331 153.448 494.477 154.385 493.873 155.594C493.269 156.781 492.967 158.177 492.967 159.781V179H485.217ZM535.529 179.656C532.217 179.656 529.363 178.958 526.967 177.562C524.592 176.167 522.769 174.188 521.498 171.625C520.227 169.062 519.592 166.031 519.592 162.531V162.5C519.592 159.021 520.227 155.99 521.498 153.406C522.79 150.802 524.592 148.781 526.904 147.344C529.238 145.906 531.988 145.188 535.154 145.188C538.3 145.188 541.019 145.885 543.311 147.281C545.623 148.656 547.394 150.594 548.623 153.094C549.873 155.594 550.498 158.51 550.498 161.844V164.344H523.436V159.156H546.779L543.029 164V161C543.029 158.833 542.696 157.031 542.029 155.594C541.363 154.156 540.446 153.083 539.279 152.375C538.113 151.646 536.769 151.281 535.248 151.281C533.706 151.281 532.331 151.656 531.123 152.406C529.936 153.135 528.998 154.229 528.311 155.688C527.644 157.146 527.311 158.917 527.311 161V164C527.311 166.021 527.644 167.75 528.311 169.188C528.998 170.604 529.967 171.698 531.217 172.469C532.467 173.219 533.956 173.594 535.686 173.594C536.977 173.594 538.113 173.396 539.092 173C540.071 172.583 540.873 172.052 541.498 171.406C542.144 170.76 542.592 170.062 542.842 169.312L542.904 169.094H550.154L550.092 169.438C549.821 170.708 549.321 171.958 548.592 173.188C547.863 174.396 546.883 175.49 545.654 176.469C544.425 177.448 542.967 178.229 541.279 178.812C539.592 179.375 537.675 179.656 535.529 179.656ZM570.029 179.656C566.717 179.656 563.863 178.958 561.467 177.562C559.092 176.167 557.269 174.188 555.998 171.625C554.727 169.062 554.092 166.031 554.092 162.531V162.5C554.092 159.021 554.727 155.99 555.998 153.406C557.29 150.802 559.092 148.781 561.404 147.344C563.738 145.906 566.488 145.188 569.654 145.188C572.8 145.188 575.519 145.885 577.811 147.281C580.123 148.656 581.894 150.594 583.123 153.094C584.373 155.594 584.998 158.51 584.998 161.844V164.344H557.936V159.156H581.279L577.529 164V161C577.529 158.833 577.196 157.031 576.529 155.594C575.863 154.156 574.946 153.083 573.779 152.375C572.613 151.646 571.269 151.281 569.748 151.281C568.206 151.281 566.831 151.656 565.623 152.406C564.436 153.135 563.498 154.229 562.811 155.688C562.144 157.146 561.811 158.917 561.811 161V164C561.811 166.021 562.144 167.75 562.811 169.188C563.498 170.604 564.467 171.698 565.717 172.469C566.967 173.219 568.456 173.594 570.186 173.594C571.477 173.594 572.613 173.396 573.592 173C574.571 172.583 575.373 172.052 575.998 171.406C576.644 170.76 577.092 170.062 577.342 169.312L577.404 169.094H584.654L584.592 169.438C584.321 170.708 583.821 171.958 583.092 173.188C582.363 174.396 581.383 175.49 580.154 176.469C578.925 177.448 577.467 178.229 575.779 178.812C574.092 179.375 572.175 179.656 570.029 179.656ZM587.186 150.469L589.623 133.906H597.186L592.592 150.469H587.186ZM611.342 179.656C608.446 179.656 605.967 179.229 603.904 178.375C601.863 177.521 600.258 176.323 599.092 174.781C597.946 173.219 597.248 171.417 596.998 169.375L596.967 169.094H604.623L604.686 169.375C604.977 170.812 605.665 171.927 606.748 172.719C607.852 173.51 609.394 173.906 611.373 173.906C612.644 173.906 613.727 173.75 614.623 173.438C615.519 173.125 616.206 172.667 616.686 172.062C617.186 171.458 617.436 170.75 617.436 169.938V169.906C617.436 168.927 617.102 168.135 616.436 167.531C615.769 166.906 614.571 166.396 612.842 166L607.342 164.781C605.238 164.302 603.477 163.646 602.061 162.812C600.644 161.979 599.581 160.948 598.873 159.719C598.165 158.469 597.811 157.021 597.811 155.375V155.344C597.811 153.323 598.363 151.552 599.467 150.031C600.571 148.51 602.123 147.323 604.123 146.469C606.123 145.615 608.446 145.188 611.092 145.188C613.842 145.188 616.196 145.646 618.154 146.562C620.113 147.479 621.623 148.708 622.686 150.25C623.769 151.792 624.352 153.521 624.436 155.438L624.467 155.781H617.217L617.186 155.531C617.019 154.198 616.415 153.104 615.373 152.25C614.331 151.375 612.904 150.938 611.092 150.938C609.946 150.938 608.946 151.104 608.092 151.438C607.258 151.771 606.613 152.24 606.154 152.844C605.717 153.448 605.498 154.156 605.498 154.969V155C605.498 155.625 605.654 156.188 605.967 156.688C606.279 157.188 606.779 157.625 607.467 158C608.154 158.354 609.071 158.667 610.217 158.938L615.717 160.156C619.154 160.927 621.602 162.031 623.061 163.469C624.519 164.885 625.248 166.792 625.248 169.188V169.219C625.248 171.302 624.654 173.135 623.467 174.719C622.279 176.281 620.633 177.5 618.529 178.375C616.446 179.229 614.05 179.656 611.342 179.656Z" fill="white"/>
<path d="M656.136 180.024C651.315 180.024 647.774 178.808 645.512 176.376C643.251 173.944 642.12 169.912 642.12 164.28C642.12 159.8 642.867 154.979 644.36 149.816C645.896 144.653 648.328 140.237 651.656 136.568C655.027 132.856 659.294 131 664.456 131C667.656 131 670.238 131.704 672.2 133.112C674.163 134.52 675.144 136.675 675.144 139.576C675.144 141.411 674.782 142.861 674.056 143.928C673.331 144.952 672.2 145.464 670.664 145.464C669.128 145.464 667.912 144.909 667.016 143.8C667.784 143.416 668.467 142.648 669.064 141.496C669.662 140.344 669.96 139.149 669.96 137.912C669.96 136.76 669.64 135.821 669 135.096C668.403 134.371 667.422 134.008 666.056 134.008C663.795 134.008 661.64 135.565 659.592 138.68C657.544 141.752 655.88 145.635 654.6 150.328C653.363 155.021 652.744 159.544 652.744 163.896C652.744 167.139 653.299 169.613 654.408 171.32C655.518 173.027 657.523 173.88 660.424 173.88C662.942 173.88 665.267 173.325 667.4 172.216C669.534 171.107 671.368 169.528 672.904 167.48L674.376 168.12C673.31 170.808 671.731 173.048 669.64 174.84C667.55 176.632 665.31 177.955 662.92 178.808C660.531 179.619 658.27 180.024 656.136 180.024ZM682.061 179.256C678.903 179.256 676.407 178.445 674.573 176.824C672.738 175.203 671.821 172.643 671.821 169.144C671.821 166.243 672.418 163.021 673.613 159.48C674.807 155.939 676.727 152.888 679.373 150.328C682.018 147.725 685.346 146.424 689.357 146.424C694.818 146.424 697.549 149.837 697.549 156.664V156.728C697.677 156.771 697.911 156.792 698.253 156.792C699.661 156.792 701.282 156.429 703.117 155.704C704.951 154.936 706.615 154.019 708.109 152.952L708.685 154.68C707.447 156.003 705.826 157.133 703.821 158.072C701.858 158.968 699.703 159.608 697.357 159.992C697.015 163.875 696.141 167.267 694.733 170.168C693.325 173.069 691.511 175.309 689.293 176.888C687.074 178.467 684.663 179.256 682.061 179.256ZM684.621 173.496C685.645 173.496 686.669 172.92 687.693 171.768C688.717 170.573 689.613 168.973 690.381 166.968C691.149 164.92 691.703 162.659 692.045 160.184C690.893 159.928 690.317 159.032 690.317 157.496C690.317 155.747 690.978 154.595 692.301 154.04C692.215 152.632 692.002 151.672 691.661 151.16C691.319 150.605 690.722 150.328 689.869 150.328C688.461 150.328 687.095 151.352 685.773 153.4C684.45 155.448 683.383 157.901 682.573 160.76C681.762 163.619 681.357 166.136 681.357 168.312C681.357 170.36 681.591 171.747 682.061 172.472C682.53 173.155 683.383 173.496 684.621 173.496ZM705.194 147H714.41L713.578 150.968C715.028 149.688 716.33 148.707 717.482 148.024C718.676 147.341 719.956 147 721.322 147C722.687 147 723.754 147.469 724.522 148.408C725.332 149.347 725.738 150.477 725.738 151.8C725.738 153.037 725.332 154.125 724.522 155.064C723.711 156.003 722.58 156.472 721.13 156.472C720.191 156.472 719.551 156.259 719.21 155.832C718.911 155.363 718.676 154.701 718.506 153.848C718.378 153.293 718.25 152.888 718.122 152.632C717.994 152.376 717.759 152.248 717.418 152.248C716.522 152.248 715.754 152.44 715.114 152.824C714.516 153.165 713.727 153.784 712.746 154.68L707.626 179H698.41L705.194 147ZM733.928 179.384C730.814 179.384 728.382 178.573 726.632 176.952C724.883 175.288 724.008 172.707 724.008 169.208C724.008 166.264 724.584 163.021 725.736 159.48C726.888 155.939 728.766 152.888 731.368 150.328C733.971 147.725 737.278 146.424 741.288 146.424C745.982 146.424 748.328 148.472 748.328 152.568C748.328 154.957 747.646 157.155 746.28 159.16C744.915 161.165 743.102 162.787 740.84 164.024C738.579 165.219 736.168 165.901 733.608 166.072C733.523 167.011 733.48 167.651 733.48 167.992C733.48 171.533 734.803 173.304 737.448 173.304C738.643 173.304 739.923 172.984 741.288 172.344C742.654 171.704 743.891 170.893 745 169.912C743.848 176.227 740.158 179.384 733.928 179.384ZM734.056 163C735.678 162.957 737.192 162.424 738.6 161.4C740.051 160.376 741.203 159.075 742.056 157.496C742.952 155.875 743.4 154.189 743.4 152.44C743.4 150.691 742.867 149.816 741.8 149.816C740.307 149.816 738.814 151.181 737.32 153.912C735.87 156.6 734.782 159.629 734.056 163ZM776.937 138.296L786.409 137.016L781.865 158.392C783.913 158.221 785.79 157.325 787.497 155.704C789.246 154.083 790.611 152.077 791.593 149.688C792.574 147.299 793.065 144.952 793.065 142.648C793.065 140.088 792.403 137.997 791.081 136.376C789.758 134.755 787.774 133.944 785.129 133.944C779.923 133.944 775.849 135.309 772.905 138.04C770.003 140.771 768.553 144.589 768.553 149.496C768.553 151.075 768.702 152.184 769.001 152.824C769.299 153.421 769.449 153.763 769.449 153.848C767.145 153.848 765.417 153.379 764.265 152.44C763.155 151.459 762.601 149.859 762.601 147.64C762.601 144.909 763.71 142.264 765.929 139.704C768.19 137.101 771.07 135.011 774.569 133.432C778.067 131.811 781.566 131 785.065 131C788.435 131 791.251 131.576 793.513 132.728C795.774 133.88 797.438 135.416 798.505 137.336C799.614 139.213 800.169 141.304 800.169 143.608C800.169 146.381 799.401 149.091 797.865 151.736C796.371 154.381 794.217 156.557 791.401 158.264C788.585 159.928 785.342 160.76 781.673 160.76H781.353L777.449 179H768.233L776.937 138.296ZM809.592 143.544C808.184 143.544 806.99 143.053 806.008 142.072C805.027 141.091 804.536 139.896 804.536 138.488C804.536 137.08 805.027 135.885 806.008 134.904C806.99 133.88 808.184 133.368 809.592 133.368C811 133.368 812.195 133.88 813.176 134.904C814.2 135.885 814.712 137.08 814.712 138.488C814.712 139.896 814.2 141.091 813.176 142.072C812.195 143.053 811 143.544 809.592 143.544ZM805.24 179.384C803.192 179.384 801.528 178.744 800.248 177.464C799.011 176.184 798.392 174.264 798.392 171.704C798.392 170.637 798.563 169.251 798.904 167.544L803.256 147H812.472L807.864 168.76C807.694 169.4 807.608 170.083 807.608 170.808C807.608 171.661 807.8 172.28 808.184 172.664C808.611 173.005 809.294 173.176 810.232 173.176C811.47 173.176 812.622 172.664 813.688 171.64C814.755 170.573 815.523 169.208 815.992 167.544H818.68C817.102 172.152 815.075 175.288 812.6 176.952C810.126 178.573 807.672 179.384 805.24 179.384ZM822.303 179.384C820.255 179.384 818.591 178.744 817.311 177.464C816.073 176.184 815.455 174.264 815.455 171.704C815.455 170.637 815.625 169.251 815.967 167.544L822.815 135.48L832.287 134.2L824.927 168.76C824.756 169.4 824.671 170.083 824.671 170.808C824.671 171.661 824.863 172.28 825.247 172.664C825.673 173.005 826.356 173.176 827.295 173.176C828.532 173.176 829.684 172.664 830.751 171.64C831.817 170.573 832.585 169.208 833.055 167.544H835.743C834.164 172.152 832.137 175.288 829.663 176.952C827.188 178.573 824.735 179.384 822.303 179.384ZM839.365 179.384C837.317 179.384 835.653 178.744 834.373 177.464C833.136 176.184 832.517 174.264 832.517 171.704C832.517 170.637 832.688 169.251 833.029 167.544L839.877 135.48L849.349 134.2L841.989 168.76C841.819 169.4 841.733 170.083 841.733 170.808C841.733 171.661 841.925 172.28 842.309 172.664C842.736 173.005 843.419 173.176 844.357 173.176C845.595 173.176 846.747 172.664 847.813 171.64C848.88 170.573 849.648 169.208 850.117 167.544H852.805C851.227 172.152 849.2 175.288 846.725 176.952C844.251 178.573 841.797 179.384 839.365 179.384ZM859.244 179.384C856.086 179.384 853.633 178.573 851.884 176.952C850.134 175.288 849.26 172.707 849.26 169.208C849.26 166.264 849.836 163.021 850.988 159.48C852.14 155.939 854.017 152.888 856.62 150.328C859.222 147.725 862.529 146.424 866.54 146.424C871.233 146.424 873.58 148.472 873.58 152.568C873.58 154.957 872.897 157.155 871.532 159.16C870.166 161.165 868.353 162.787 866.092 164.024C863.83 165.219 861.42 165.901 858.86 166.072C858.774 167.352 858.732 168.205 858.732 168.632C858.732 170.723 859.094 172.152 859.82 172.92C860.545 173.645 861.718 174.008 863.34 174.008C865.644 174.008 867.606 173.475 869.228 172.408C870.892 171.341 872.705 169.72 874.668 167.544H876.844C872.108 175.437 866.241 179.384 859.244 179.384ZM859.372 163C860.95 162.915 862.444 162.36 863.852 161.336C865.302 160.312 866.454 159.011 867.308 157.432C868.204 155.853 868.652 154.189 868.652 152.44C868.652 150.691 868.118 149.816 867.052 149.816C865.516 149.816 864.001 151.16 862.508 153.848C861.057 156.536 860.012 159.587 859.372 163ZM879.006 147H888.222L887.39 150.968C888.841 149.688 890.142 148.707 891.294 148.024C892.489 147.341 893.769 147 895.134 147C896.5 147 897.566 147.469 898.334 148.408C899.145 149.347 899.55 150.477 899.55 151.8C899.55 153.037 899.145 154.125 898.334 155.064C897.524 156.003 896.393 156.472 894.942 156.472C894.004 156.472 893.364 156.259 893.022 155.832C892.724 155.363 892.489 154.701 892.318 153.848C892.19 153.293 892.062 152.888 891.934 152.632C891.806 152.376 891.572 152.248 891.23 152.248C890.334 152.248 889.566 152.44 888.926 152.824C888.329 153.165 887.54 153.784 886.558 154.68L881.438 179H872.222L879.006 147ZM906.013 179.384C903.965 179.384 902.237 179 900.829 178.232C899.421 177.421 898.375 176.397 897.693 175.16C897.01 173.88 896.669 172.557 896.669 171.192C896.669 169.784 897.01 168.568 897.693 167.544C898.333 166.477 899.122 165.709 900.061 165.24C901.725 162.253 903.175 159.245 904.413 156.216C905.65 153.144 906.823 149.837 907.933 146.296L917.405 145.016C917.618 150.477 917.981 156.387 918.493 162.744C918.706 165.304 918.813 167.16 918.813 168.312C918.813 170.915 918.151 173.048 916.829 174.712C915.506 176.376 913.863 177.571 911.901 178.296C909.981 179.021 908.018 179.384 906.013 179.384ZM903.965 174.328C905.543 174.328 906.866 173.859 907.933 172.92C908.999 171.981 909.533 170.467 909.533 168.376C909.533 167.096 909.405 165.304 909.149 163C908.722 158.136 908.445 154.872 908.317 153.208C907.293 156.579 905.565 160.611 903.133 165.304C904.114 165.816 904.605 166.563 904.605 167.544C904.605 168.355 904.327 169.08 903.773 169.72C903.261 170.36 902.599 170.68 901.789 170.68C900.893 170.68 900.317 170.403 900.061 169.848C900.061 171.384 900.359 172.515 900.957 173.24C901.597 173.965 902.599 174.328 903.965 174.328Z" fill="#79FFFF"/>
<g opacity="0.15">
<mask id="path-2-outside-1_3699_2136" maskUnits="userSpaceOnUse" x="-0.220703" y="0" width="1314" height="311" fill="black">
<rect fill="white" x="-0.220703" width="1314" height="311"/>
<path d="M110.523 300.928L7.7793 5H65.4062L140.465 244.531H141.49L216.754 5H274.381L171.637 300.928H110.523Z"/>
<path d="M348.094 304.619C333.739 304.619 321.024 301.885 309.95 296.416C299.012 290.811 290.467 283.086 284.315 273.242C278.299 263.262 275.291 251.846 275.291 238.994V238.584C275.291 225.596 278.504 214.521 284.93 205.361C291.493 196.064 300.926 188.75 313.231 183.418C325.536 177.949 340.438 174.668 357.938 173.574L440.995 168.447V202.285L365.116 207.002C352.538 207.822 342.899 210.83 336.2 216.025C329.5 221.221 326.151 228.125 326.151 236.738V236.943C326.151 245.83 329.5 252.871 336.2 258.066C343.036 263.125 352.059 265.654 363.27 265.654C373.114 265.654 381.864 263.672 389.52 259.707C397.313 255.742 403.465 250.342 407.977 243.506C412.489 236.67 414.745 228.945 414.745 220.332V155.117C414.745 144.18 411.258 135.566 404.286 129.277C397.45 122.852 387.538 119.639 374.549 119.639C362.518 119.639 352.879 122.236 345.633 127.432C338.387 132.49 333.875 139.053 332.098 147.119L331.688 148.965H284.52L284.725 146.504C285.819 133.652 290.125 122.168 297.645 112.051C305.164 101.797 315.555 93.7305 328.817 87.8516C342.215 81.9727 358.075 79.0332 376.395 79.0332C394.579 79.0332 410.301 82.041 423.563 88.0566C436.961 94.0723 447.284 102.48 454.53 113.281C461.913 124.082 465.604 136.797 465.604 151.426V300.928H414.745V267.5H413.514C409.413 275.02 404.08 281.582 397.518 287.188C390.955 292.793 383.436 297.1 374.959 300.107C366.62 303.115 357.664 304.619 348.094 304.619Z"/>
<path d="M521.065 300.928V5H572.13V300.928H521.065Z"/>
<path d="M628.206 300.928V83.5449H679.066V117.588H680.296C685.902 105.83 694.241 96.4648 705.316 89.4922C716.527 82.5195 730.335 79.0332 746.741 79.0332C770.667 79.0332 789.124 86.2793 802.112 100.771C815.237 115.264 821.8 135.088 821.8 160.244V300.928H770.736V170.498C770.736 155.049 767.112 143.154 759.866 134.814C752.62 126.338 741.751 122.1 727.259 122.1C717.552 122.1 709.075 124.355 701.829 128.867C694.583 133.242 688.978 139.395 685.013 147.324C681.048 155.117 679.066 164.277 679.066 174.805V300.928H628.206Z"/>
<path d="M970.982 305.234C949.244 305.234 930.513 300.654 914.791 291.494C899.205 282.334 887.242 269.346 878.902 252.529C870.562 235.713 866.392 215.82 866.392 192.852V192.646C866.392 169.814 870.562 149.922 878.902 132.969C887.379 115.879 899.205 102.617 914.38 93.1836C929.693 83.75 947.74 79.0332 968.521 79.0332C989.166 79.0332 1007.01 83.6133 1022.05 92.7734C1037.22 101.797 1048.84 114.512 1056.91 130.918C1065.11 147.324 1069.21 166.465 1069.21 188.34V204.746H891.617V170.703H1044.81L1020.2 202.49V182.803C1020.2 168.584 1018.01 156.758 1013.64 147.324C1009.26 137.891 1003.25 130.85 995.591 126.201C987.935 121.416 979.117 119.023 969.136 119.023C959.019 119.023 949.996 121.484 942.066 126.406C934.273 131.191 928.121 138.369 923.609 147.939C919.234 157.51 917.047 169.131 917.047 182.803V202.49C917.047 215.752 919.234 227.1 923.609 236.533C928.121 245.83 934.478 253.008 942.681 258.066C950.884 262.988 960.66 265.449 972.007 265.449C980.484 265.449 987.935 264.15 994.361 261.553C1000.79 258.818 1006.05 255.332 1010.15 251.094C1014.39 246.855 1017.33 242.275 1018.97 237.354L1019.38 235.918H1066.96L1066.55 238.174C1064.77 246.514 1061.49 254.717 1056.7 262.783C1051.92 270.713 1045.49 277.891 1037.43 284.316C1029.36 290.742 1019.79 295.869 1008.72 299.697C997.642 303.389 985.064 305.234 970.982 305.234Z"/>
<path d="M1209.99 305.234C1188.25 305.234 1169.52 300.654 1153.8 291.494C1138.21 282.334 1126.25 269.346 1117.91 252.529C1109.57 235.713 1105.4 215.82 1105.4 192.852V192.646C1105.4 169.814 1109.57 149.922 1117.91 132.969C1126.38 115.879 1138.21 102.617 1153.39 93.1836C1168.7 83.75 1186.75 79.0332 1207.53 79.0332C1228.17 79.0332 1246.01 83.6133 1261.05 92.7734C1276.23 101.797 1287.85 114.512 1295.92 130.918C1304.12 147.324 1308.22 166.465 1308.22 188.34V204.746H1130.62V170.703H1283.82L1259.21 202.49V182.803C1259.21 168.584 1257.02 156.758 1252.64 147.324C1248.27 137.891 1242.25 130.85 1234.6 126.201C1226.94 121.416 1218.12 119.023 1208.14 119.023C1198.03 119.023 1189 121.484 1181.07 126.406C1173.28 131.191 1167.13 138.369 1162.62 147.939C1158.24 157.51 1156.05 169.131 1156.05 182.803V202.49C1156.05 215.752 1158.24 227.1 1162.62 236.533C1167.13 245.83 1173.48 253.008 1181.69 258.066C1189.89 262.988 1199.67 265.449 1211.01 265.449C1219.49 265.449 1226.94 264.15 1233.37 261.553C1239.79 258.818 1245.06 255.332 1249.16 251.094C1253.4 246.855 1256.34 242.275 1257.98 237.354L1258.39 235.918H1305.96L1305.55 238.174C1303.78 246.514 1300.5 254.717 1295.71 262.783C1290.93 270.713 1284.5 277.891 1276.43 284.316C1268.37 290.742 1258.8 295.869 1247.72 299.697C1236.65 303.389 1224.07 305.234 1209.99 305.234Z"/>
</mask>
<path d="M110.523 300.928L7.7793 5H65.4062L140.465 244.531H141.49L216.754 5H274.381L171.637 300.928H110.523Z" stroke="#93A3FF" stroke-width="10" mask="url(#path-2-outside-1_3699_2136)"/>
<path d="M348.094 304.619C333.739 304.619 321.024 301.885 309.95 296.416C299.012 290.811 290.467 283.086 284.315 273.242C278.299 263.262 275.291 251.846 275.291 238.994V238.584C275.291 225.596 278.504 214.521 284.93 205.361C291.493 196.064 300.926 188.75 313.231 183.418C325.536 177.949 340.438 174.668 357.938 173.574L440.995 168.447V202.285L365.116 207.002C352.538 207.822 342.899 210.83 336.2 216.025C329.5 221.221 326.151 228.125 326.151 236.738V236.943C326.151 245.83 329.5 252.871 336.2 258.066C343.036 263.125 352.059 265.654 363.27 265.654C373.114 265.654 381.864 263.672 389.52 259.707C397.313 255.742 403.465 250.342 407.977 243.506C412.489 236.67 414.745 228.945 414.745 220.332V155.117C414.745 144.18 411.258 135.566 404.286 129.277C397.45 122.852 387.538 119.639 374.549 119.639C362.518 119.639 352.879 122.236 345.633 127.432C338.387 132.49 333.875 139.053 332.098 147.119L331.688 148.965H284.52L284.725 146.504C285.819 133.652 290.125 122.168 297.645 112.051C305.164 101.797 315.555 93.7305 328.817 87.8516C342.215 81.9727 358.075 79.0332 376.395 79.0332C394.579 79.0332 410.301 82.041 423.563 88.0566C436.961 94.0723 447.284 102.48 454.53 113.281C461.913 124.082 465.604 136.797 465.604 151.426V300.928H414.745V267.5H413.514C409.413 275.02 404.08 281.582 397.518 287.188C390.955 292.793 383.436 297.1 374.959 300.107C366.62 303.115 357.664 304.619 348.094 304.619Z" stroke="#93A3FF" stroke-width="10" mask="url(#path-2-outside-1_3699_2136)"/>
<path d="M521.065 300.928V5H572.13V300.928H521.065Z" stroke="#93A3FF" stroke-width="10" mask="url(#path-2-outside-1_3699_2136)"/>
<path d="M628.206 300.928V83.5449H679.066V117.588H680.296C685.902 105.83 694.241 96.4648 705.316 89.4922C716.527 82.5195 730.335 79.0332 746.741 79.0332C770.667 79.0332 789.124 86.2793 802.112 100.771C815.237 115.264 821.8 135.088 821.8 160.244V300.928H770.736V170.498C770.736 155.049 767.112 143.154 759.866 134.814C752.62 126.338 741.751 122.1 727.259 122.1C717.552 122.1 709.075 124.355 701.829 128.867C694.583 133.242 688.978 139.395 685.013 147.324C681.048 155.117 679.066 164.277 679.066 174.805V300.928H628.206Z" stroke="#93A3FF" stroke-width="10" mask="url(#path-2-outside-1_3699_2136)"/>
<path d="M970.982 305.234C949.244 305.234 930.513 300.654 914.791 291.494C899.205 282.334 887.242 269.346 878.902 252.529C870.562 235.713 866.392 215.82 866.392 192.852V192.646C866.392 169.814 870.562 149.922 878.902 132.969C887.379 115.879 899.205 102.617 914.38 93.1836C929.693 83.75 947.74 79.0332 968.521 79.0332C989.166 79.0332 1007.01 83.6133 1022.05 92.7734C1037.22 101.797 1048.84 114.512 1056.91 130.918C1065.11 147.324 1069.21 166.465 1069.21 188.34V204.746H891.617V170.703H1044.81L1020.2 202.49V182.803C1020.2 168.584 1018.01 156.758 1013.64 147.324C1009.26 137.891 1003.25 130.85 995.591 126.201C987.935 121.416 979.117 119.023 969.136 119.023C959.019 119.023 949.996 121.484 942.066 126.406C934.273 131.191 928.121 138.369 923.609 147.939C919.234 157.51 917.047 169.131 917.047 182.803V202.49C917.047 215.752 919.234 227.1 923.609 236.533C928.121 245.83 934.478 253.008 942.681 258.066C950.884 262.988 960.66 265.449 972.007 265.449C980.484 265.449 987.935 264.15 994.361 261.553C1000.79 258.818 1006.05 255.332 1010.15 251.094C1014.39 246.855 1017.33 242.275 1018.97 237.354L1019.38 235.918H1066.96L1066.55 238.174C1064.77 246.514 1061.49 254.717 1056.7 262.783C1051.92 270.713 1045.49 277.891 1037.43 284.316C1029.36 290.742 1019.79 295.869 1008.72 299.697C997.642 303.389 985.064 305.234 970.982 305.234Z" stroke="#93A3FF" stroke-width="10" mask="url(#path-2-outside-1_3699_2136)"/>
<path d="M1209.99 305.234C1188.25 305.234 1169.52 300.654 1153.8 291.494C1138.21 282.334 1126.25 269.346 1117.91 252.529C1109.57 235.713 1105.4 215.82 1105.4 192.852V192.646C1105.4 169.814 1109.57 149.922 1117.91 132.969C1126.38 115.879 1138.21 102.617 1153.39 93.1836C1168.7 83.75 1186.75 79.0332 1207.53 79.0332C1228.17 79.0332 1246.01 83.6133 1261.05 92.7734C1276.23 101.797 1287.85 114.512 1295.92 130.918C1304.12 147.324 1308.22 166.465 1308.22 188.34V204.746H1130.62V170.703H1283.82L1259.21 202.49V182.803C1259.21 168.584 1257.02 156.758 1252.64 147.324C1248.27 137.891 1242.25 130.85 1234.6 126.201C1226.94 121.416 1218.12 119.023 1208.14 119.023C1198.03 119.023 1189 121.484 1181.07 126.406C1173.28 131.191 1167.13 138.369 1162.62 147.939C1158.24 157.51 1156.05 169.131 1156.05 182.803V202.49C1156.05 215.752 1158.24 227.1 1162.62 236.533C1167.13 245.83 1173.48 253.008 1181.69 258.066C1189.89 262.988 1199.67 265.449 1211.01 265.449C1219.49 265.449 1226.94 264.15 1233.37 261.553C1239.79 258.818 1245.06 255.332 1249.16 251.094C1253.4 246.855 1256.34 242.275 1257.98 237.354L1258.39 235.918H1305.96L1305.55 238.174C1303.78 246.514 1300.5 254.717 1295.71 262.783C1290.93 270.713 1284.5 277.891 1276.43 284.316C1268.37 290.742 1258.8 295.869 1247.72 299.697C1236.65 303.389 1224.07 305.234 1209.99 305.234Z" stroke="#93A3FF" stroke-width="10" mask="url(#path-2-outside-1_3699_2136)"/>
</g>
</svg>
