<svg width="21" height="20" viewBox="0 0 21 20" fill="none" xmlns="http://www.w3.org/2000/svg">
<path fill-rule="evenodd" clip-rule="evenodd" d="M17.571 12.6516L10.9419 19.2808C10.8247 19.398 10.6657 19.4638 10.4999 19.4638C10.3342 19.4638 10.1752 19.398 10.058 19.2808L3.42887 12.6517C3.18479 12.4076 3.18479 12.0118 3.42887 11.7678C3.67295 11.5237 4.06868 11.5237 4.31275 11.7678L9.87494 17.33V1.16117C9.87494 0.815987 10.1548 0.536165 10.4999 0.536165C10.8451 0.536166 11.1249 0.815987 11.1249 1.16117L11.1249 17.33L16.6871 11.7678C16.9312 11.5237 17.3269 11.5237 17.571 11.7678C17.8151 12.0118 17.8151 12.4076 17.571 12.6516Z" fill="black"/>
</svg>
