<svg width="30" height="30" viewBox="0 0 30 30" fill="none" xmlns="http://www.w3.org/2000/svg">
<g filter="url(#filter0_i_2356_16990)">
<path fill-rule="evenodd" clip-rule="evenodd" d="M11.2362 6.63472C12.7112 3.63181 15.8005 1.5625 19.375 1.5625C24.3801 1.5625 28.4375 5.61992 28.4375 10.625C28.4375 11.9651 28.146 13.2397 27.6221 14.3867C27.4854 14.686 27.4588 14.9688 27.5195 15.196L27.6788 15.791C28.1884 17.6958 26.4458 19.4384 24.541 18.9288L23.946 18.7695C23.7768 18.7243 23.577 18.7275 23.3624 18.7884C22.7248 24.2218 18.1047 28.4375 12.5 28.4375C10.8125 28.4375 9.21186 28.0547 7.78237 27.3703C7.49938 27.2349 7.22075 27.2074 6.99155 27.2687L5.459 27.6788C3.55421 28.1884 1.81159 26.4458 2.32125 24.541L2.7313 23.0085C2.79263 22.7793 2.76514 22.5006 2.62966 22.2176C1.94529 20.7881 1.5625 19.1875 1.5625 17.5C1.5625 11.8868 5.79091 7.26122 11.2362 6.63472ZM13.4187 6.60054C18.8247 7.05014 23.1143 11.4314 23.4201 16.877C23.7482 16.8457 24.0893 16.8669 24.4306 16.9583L25.0256 17.1175C25.5367 17.2542 26.0042 16.7867 25.8675 16.2756L25.7083 15.6806C25.5118 14.9464 25.6398 14.2135 25.9166 13.6076C26.3311 12.7003 26.5625 11.6909 26.5625 10.625C26.5625 6.65545 23.3445 3.4375 19.375 3.4375C16.8976 3.4375 14.7115 4.69105 13.4187 6.60054ZM12.5 8.4375C7.49492 8.4375 3.4375 12.4949 3.4375 17.5C3.4375 18.9013 3.7549 20.2258 4.32084 21.408C4.61509 22.0226 4.73849 22.7609 4.54259 23.4931L4.13253 25.0256C3.99579 25.5367 4.46333 26.0042 4.97437 25.8675L6.50692 25.4574C7.23908 25.2615 7.97739 25.3849 8.59202 25.6792C9.77415 26.2451 11.0987 26.5625 12.5 26.5625C17.5051 26.5625 21.5625 22.5051 21.5625 17.5C21.5625 12.4949 17.5051 8.4375 12.5 8.4375Z" fill="#2D313C" fill-opacity="0.01"/>
<path d="M23.4201 16.877C23.1143 11.4314 18.8247 7.05014 13.4187 6.60054C14.7115 4.69105 16.8976 3.4375 19.375 3.4375C23.3445 3.4375 26.5625 6.65545 26.5625 10.625C26.5625 11.6909 26.3311 12.7003 25.9166 13.6076C25.6398 14.2135 25.5118 14.9464 25.7083 15.6806L25.8675 16.2756C26.0042 16.7867 25.5367 17.2542 25.0256 17.1175L24.4306 16.9583C24.0893 16.8669 23.7482 16.8457 23.4201 16.877Z" fill="#4C96FF"/>
<path fill-rule="evenodd" clip-rule="evenodd" d="M3.4375 17.5C3.4375 12.4949 7.49492 8.4375 12.5 8.4375C17.5051 8.4375 21.5625 12.4949 21.5625 17.5C21.5625 22.5051 17.5051 26.5625 12.5 26.5625C11.0987 26.5625 9.77415 26.2451 8.59202 25.6792C7.97739 25.3849 7.23908 25.2615 6.50692 25.4574L4.97437 25.8675C4.46333 26.0042 3.99579 25.5367 4.13253 25.0256L4.54259 23.4931C4.73849 22.7609 4.61509 22.0226 4.32084 21.408C3.7549 20.2258 3.4375 18.9013 3.4375 17.5ZM8.125 18.75C8.81536 18.75 9.375 18.1904 9.375 17.5C9.375 16.8096 8.81536 16.25 8.125 16.25C7.43464 16.25 6.875 16.8096 6.875 17.5C6.875 18.1904 7.43464 18.75 8.125 18.75ZM12.5 18.75C13.1904 18.75 13.75 18.1904 13.75 17.5C13.75 16.8096 13.1904 16.25 12.5 16.25C11.8096 16.25 11.25 16.8096 11.25 17.5C11.25 18.1904 11.8096 18.75 12.5 18.75ZM16.875 18.75C17.5654 18.75 18.125 18.1904 18.125 17.5C18.125 16.8096 17.5654 16.25 16.875 16.25C16.1846 16.25 15.625 16.8096 15.625 17.5C15.625 18.1904 16.1846 18.75 16.875 18.75Z" fill="#4C96FF"/>
</g>
<defs>
<filter id="filter0_i_2356_16990" x="0" y="0" width="30" height="30.75" filterUnits="userSpaceOnUse" color-interpolation-filters="sRGB">
<feFlood flood-opacity="0" result="BackgroundImageFix"/>
<feBlend mode="normal" in="SourceGraphic" in2="BackgroundImageFix" result="shape"/>
<feColorMatrix in="SourceAlpha" type="matrix" values="0 0 0 0 0 0 0 0 0 0 0 0 0 0 0 0 0 0 127 0" result="hardAlpha"/>
<feOffset dy="1.5"/>
<feGaussianBlur stdDeviation="0.375"/>
<feComposite in2="hardAlpha" operator="arithmetic" k2="-1" k3="1"/>
<feColorMatrix type="matrix" values="0 0 0 0 0 0 0 0 0 0 0 0 0 0 0 0 0 0 0.45 0"/>
<feBlend mode="normal" in2="shape" result="effect1_innerShadow_2356_16990"/>
</filter>
</defs>
</svg>
