<svg width="748" height="124" viewBox="0 0 748 124" fill="none" xmlns="http://www.w3.org/2000/svg">
<mask id="mask0_697_7084" style="mask-type:alpha" maskUnits="userSpaceOnUse" x="17" y="14" width="713" height="101">
<path d="M17.7445 52V15.6H39.0645V22.152H25.0245V30.316H38.8045V36.66H25.0245V45.448H39.1685V52H17.7445ZM43.2753 52V24.96H50.1913V28.912C51.5953 25.896 54.2993 24.336 58.4593 24.336C62.2553 24.336 65.4793 26.156 67.2473 29.432C69.0673 26.156 71.6673 24.336 76.3993 24.336C82.2233 24.336 86.6953 28.652 86.6953 35.464V52H79.6753V37.18C79.6753 32.5 77.4393 30.472 74.2673 30.472C70.9913 30.472 68.7553 31.98 68.7553 37.18V52H61.7353V37.18C61.7353 32.5 59.3953 30.472 55.9113 30.472C52.9473 30.472 50.2953 32.5 50.2953 37.18V52H43.2753ZM90.6034 62.4V24.96H97.5194V29.328C98.9754 26.364 101.419 24.388 106.151 24.388C113.587 24.388 119.515 30.784 119.515 38.584C119.515 46.384 113.587 52.676 106.151 52.676C101.523 52.676 99.0794 50.804 97.6234 47.996V62.4H90.6034ZM97.4154 38.584C97.4154 42.796 100.379 46.332 105.007 46.332C109.479 46.332 112.495 42.64 112.495 38.532C112.495 34.32 109.479 30.732 105.007 30.732C100.379 30.732 97.4154 34.372 97.4154 38.584ZM135.757 52.676C127.385 52.676 121.353 46.332 121.353 38.532C121.353 30.732 127.385 24.336 135.757 24.336C144.129 24.336 150.161 30.732 150.161 38.532C150.161 46.332 144.129 52.676 135.757 52.676ZM128.373 38.532C128.373 42.744 131.285 46.28 135.757 46.28C140.229 46.28 143.141 42.744 143.141 38.532C143.141 34.32 140.229 30.732 135.757 30.732C131.285 30.732 128.373 34.32 128.373 38.532ZM157.92 52L149.496 24.96H157.712L161.196 40.3C161.508 41.6 161.82 43.056 162.028 44.408C162.236 43.056 162.548 41.548 162.912 40.248L166.864 24.96H174.924L179.136 40.248C179.5 41.548 179.812 43.056 180.02 44.408C180.228 43.056 180.54 41.6 180.852 40.3L184.596 24.96H192.24L183.816 52H176.224L171.804 36.608C171.388 35.308 171.076 33.904 170.868 32.552C170.66 33.904 170.4 35.308 170.036 36.608L165.98 52H157.92ZM205.419 52.676C197.047 52.676 191.431 46.332 191.431 38.532C191.431 30.732 197.307 24.284 205.419 24.284C213.531 24.284 219.147 30.732 219.147 38.532C219.147 39.312 219.095 40.144 218.939 41.028H198.711C199.491 44.2 201.883 46.436 205.419 46.436C208.435 46.436 210.775 44.876 212.023 42.796L217.483 46.904C215.299 50.284 210.775 52.676 205.419 52.676ZM198.711 35.776H212.075C211.295 32.76 208.747 30.316 205.315 30.316C201.987 30.316 199.491 32.552 198.711 35.776ZM222.228 52V24.96H229.04V30.108C229.976 26.208 232.732 24.076 237.412 24.336V30.94H236.424C232.368 30.94 229.248 33.644 229.248 38.168V52H222.228ZM239.748 52V24.96H246.768V52H239.748ZM239.02 18.564C239.02 16.328 240.84 14.456 243.232 14.456C245.676 14.456 247.444 16.328 247.444 18.564C247.444 20.904 245.676 22.724 243.232 22.724C240.84 22.724 239.02 20.852 239.02 18.564ZM250.92 52V24.96H257.836V28.912C259.24 25.896 261.944 24.336 266.104 24.336C271.928 24.336 276.4 28.652 276.4 35.464V52H269.38V37.18C269.38 32.5 267.04 30.472 263.556 30.472C260.592 30.472 257.94 32.5 257.94 37.18V52H250.92ZM293.478 63.076C288.018 63.076 283.754 61.776 280.53 57.98L284.898 52.832C287.446 55.744 290.15 56.576 293.53 56.576C297.274 56.576 300.55 53.508 300.55 49.192V47.996C299.094 50.492 296.754 52.156 292.386 52.156C284.95 52.156 279.282 46.02 279.282 38.22C279.282 30.42 284.95 24.284 292.386 24.284C296.858 24.284 299.25 26 300.654 28.652V24.96H307.57V49.608C307.57 57.928 301.746 63.076 293.478 63.076ZM286.302 38.22C286.302 42.328 288.954 45.76 293.53 45.76C298.158 45.76 300.862 42.432 300.862 38.22C300.862 34.008 298.158 30.68 293.53 30.68C288.954 30.68 286.302 34.008 286.302 38.22ZM328.62 52V37.388L316.296 15.6H324.304L330.024 26.052C330.908 27.716 332 29.588 332.468 31.356C332.988 29.588 333.924 27.768 334.808 26.052L340.268 15.6H348.224L335.9 37.544V52H328.62ZM357.01 52.676C348.638 52.676 342.606 46.332 342.606 38.532C342.606 30.732 348.638 24.336 357.01 24.336C365.382 24.336 371.414 30.732 371.414 38.532C371.414 46.332 365.382 52.676 357.01 52.676ZM349.626 38.532C349.626 42.744 352.538 46.28 357.01 46.28C361.482 46.28 364.394 42.744 364.394 38.532C364.394 34.32 361.482 30.732 357.01 30.732C352.538 30.732 349.626 34.32 349.626 38.532ZM384.557 52.624C378.733 52.624 374.261 48.308 374.261 41.496V24.96H381.281V39.78C381.281 44.46 383.205 46.488 386.689 46.488C389.653 46.488 392.305 44.46 392.305 39.78V24.96H399.325V52H392.513V47.944C391.213 51.064 388.769 52.624 384.557 52.624ZM403.467 52V24.96H410.279V30.108C411.215 26.208 413.971 24.076 418.651 24.336V30.94H417.663C413.607 30.94 410.487 33.644 410.487 38.168V52H403.467ZM430.038 52V15.6H442.31C450.214 15.6 454.478 19.5 454.478 25.168C454.478 28.652 453.074 31.148 448.602 32.812C454.53 34.216 456.506 37.44 456.506 41.964C456.506 48.048 451.514 52 443.61 52H430.038ZM437.318 45.448H442.934C446.886 45.448 449.122 43.992 449.122 40.82C449.122 38.168 446.886 36.556 442.934 36.556H437.318V45.448ZM437.318 30.628H441.634C445.586 30.628 447.094 29.224 447.094 26.312C447.094 23.816 445.586 22.1 441.634 22.1H437.318V30.628ZM469.413 52.624C463.589 52.624 459.117 48.308 459.117 41.496V24.96H466.137V39.78C466.137 44.46 468.061 46.488 471.545 46.488C474.509 46.488 477.161 44.46 477.161 39.78V24.96H484.181V52H477.369V47.944C476.069 51.064 473.625 52.624 469.413 52.624ZM497.578 52.676C493.002 52.676 489.31 51.116 486.346 47.944L491.078 43.628C493.054 45.864 495.134 46.956 497.422 46.956C499.814 46.956 501.166 45.76 501.166 44.148C501.166 42.744 500.49 41.964 496.226 40.976C488.998 39.26 487.906 35.984 487.906 32.552C487.906 27.82 491.65 24.284 497.994 24.284C502.362 24.284 505.274 25.376 508.03 28.964L502.934 32.864C501.634 30.784 499.97 29.952 498.15 29.952C496.226 29.952 494.77 30.68 494.77 32.344C494.77 33.28 495.186 34.112 498.41 34.944C506.262 36.972 508.082 39.884 508.082 43.94C508.082 48.932 503.558 52.676 497.578 52.676ZM510.818 52V24.96H517.838V52H510.818ZM510.09 18.564C510.09 16.328 511.91 14.456 514.302 14.456C516.746 14.456 518.514 16.328 518.514 18.564C518.514 20.904 516.746 22.724 514.302 22.724C511.91 22.724 510.09 20.852 510.09 18.564ZM521.99 52V24.96H528.906V28.912C530.31 25.896 533.014 24.336 537.174 24.336C542.998 24.336 547.47 28.652 547.47 35.464V52H540.45V37.18C540.45 32.5 538.11 30.472 534.626 30.472C531.662 30.472 529.01 32.5 529.01 37.18V52H521.99ZM564.341 52.676C555.969 52.676 550.353 46.332 550.353 38.532C550.353 30.732 556.229 24.284 564.341 24.284C572.453 24.284 578.069 30.732 578.069 38.532C578.069 39.312 578.017 40.144 577.861 41.028H557.633C558.413 44.2 560.805 46.436 564.341 46.436C567.357 46.436 569.697 44.876 570.945 42.796L576.405 46.904C574.221 50.284 569.697 52.676 564.341 52.676ZM557.633 35.776H570.997C570.217 32.76 567.669 30.316 564.237 30.316C560.909 30.316 558.413 32.552 557.633 35.776ZM589.645 52.676C585.069 52.676 581.377 51.116 578.413 47.944L583.145 43.628C585.121 45.864 587.201 46.956 589.489 46.956C591.881 46.956 593.233 45.76 593.233 44.148C593.233 42.744 592.557 41.964 588.293 40.976C581.065 39.26 579.973 35.984 579.973 32.552C579.973 27.82 583.717 24.284 590.061 24.284C594.429 24.284 597.341 25.376 600.097 28.964L595.001 32.864C593.701 30.784 592.037 29.952 590.217 29.952C588.293 29.952 586.837 30.68 586.837 32.344C586.837 33.28 587.253 34.112 590.477 34.944C598.329 36.972 600.149 39.884 600.149 43.94C600.149 48.932 595.625 52.676 589.645 52.676ZM612.141 52.676C607.565 52.676 603.873 51.116 600.909 47.944L605.641 43.628C607.617 45.864 609.697 46.956 611.985 46.956C614.377 46.956 615.729 45.76 615.729 44.148C615.729 42.744 615.053 41.964 610.789 40.976C603.561 39.26 602.469 35.984 602.469 32.552C602.469 27.82 606.213 24.284 612.557 24.284C616.925 24.284 619.837 25.376 622.593 28.964L617.497 32.864C616.197 30.784 614.533 29.952 612.713 29.952C610.789 29.952 609.333 30.68 609.333 32.344C609.333 33.28 609.749 34.112 612.973 34.944C620.825 36.972 622.645 39.884 622.645 43.94C622.645 48.932 618.121 52.676 612.141 52.676ZM639.58 52L631.156 24.96H639.372L642.856 40.3C643.168 41.6 643.48 43.056 643.688 44.408C643.896 43.056 644.208 41.548 644.572 40.248L648.524 24.96H656.584L660.796 40.248C661.16 41.548 661.472 43.056 661.68 44.408C661.888 43.056 662.2 41.6 662.512 40.3L666.256 24.96H673.9L665.476 52H657.884L653.464 36.608C653.048 35.308 652.736 33.904 652.528 32.552C652.32 33.904 652.06 35.308 651.696 36.608L647.64 52H639.58ZM675.299 52V24.96H682.319V52H675.299ZM674.571 18.564C674.571 16.328 676.391 14.456 678.783 14.456C681.227 14.456 682.995 16.328 682.995 18.564C682.995 20.904 681.227 22.724 678.783 22.724C676.391 22.724 674.571 20.852 674.571 18.564ZM696.715 52C691.359 52 688.447 49.504 688.447 43.628V30.94H684.651V24.96H688.447V19.5L695.467 18.772V24.96H701.187V30.94H695.467V43.264C695.467 44.98 696.299 45.76 697.651 45.76H700.563V52H696.715ZM703.533 52V14.04H710.553V28.704C712.009 25.792 714.661 24.336 718.717 24.336C724.541 24.336 729.013 28.652 729.013 35.464V52H721.993V37.18C721.993 32.5 719.653 30.472 716.169 30.472C713.205 30.472 710.553 32.5 710.553 37.18V52H703.533ZM35.1117 114V77.6H42.3917V114H35.1117ZM47.0839 114V86.96H53.9999V90.912C55.4039 87.896 58.1079 86.336 62.2679 86.336C68.0919 86.336 72.5639 90.652 72.5639 97.464V114H65.5439V99.18C65.5439 94.5 63.2039 92.472 59.7199 92.472C56.7559 92.472 54.1039 94.5 54.1039 99.18V114H47.0839ZM76.4863 114V86.96H83.4023V90.912C84.8063 87.896 87.5103 86.336 91.6703 86.336C97.4943 86.336 101.966 90.652 101.966 97.464V114H94.9463V99.18C94.9463 94.5 92.6063 92.472 89.1223 92.472C86.1583 92.472 83.5063 94.5 83.5063 99.18V114H76.4863ZM119.253 114.676C110.881 114.676 104.849 108.332 104.849 100.532C104.849 92.732 110.881 86.336 119.253 86.336C127.625 86.336 133.657 92.732 133.657 100.532C133.657 108.332 127.625 114.676 119.253 114.676ZM111.869 100.532C111.869 104.744 114.781 108.28 119.253 108.28C123.725 108.28 126.637 104.744 126.637 100.532C126.637 96.32 123.725 92.732 119.253 92.732C114.781 92.732 111.869 96.32 111.869 100.532ZM143.563 114L132.279 86.96H140.599L146.007 102.404C146.475 103.704 146.891 105.316 147.151 106.72C147.411 105.316 147.827 103.704 148.295 102.404L153.703 86.96H161.867L150.635 114H143.563ZM173.767 114.676C166.331 114.676 160.403 108.384 160.403 100.584C160.403 92.784 166.331 86.388 173.767 86.388C178.447 86.388 180.891 88.312 182.347 91.224V86.96H189.315V114H182.503V109.58C181.047 112.648 178.603 114.676 173.767 114.676ZM167.423 100.532C167.423 104.64 170.439 108.332 174.911 108.332C179.539 108.332 182.503 104.796 182.503 100.584C182.503 96.372 179.539 92.732 174.911 92.732C170.439 92.732 167.423 96.32 167.423 100.532ZM203.73 114C198.374 114 195.462 111.504 195.462 105.628V92.94H191.666V86.96H195.462V81.5L202.482 80.772V86.96H208.202V92.94H202.482V105.264C202.482 106.98 203.314 107.76 204.666 107.76H207.578V114H203.73ZM210.549 114V86.96H217.569V114H210.549ZM209.821 80.564C209.821 78.328 211.641 76.456 214.033 76.456C216.477 76.456 218.245 78.328 218.245 80.564C218.245 82.904 216.477 84.724 214.033 84.724C211.641 84.724 209.821 82.852 209.821 80.564ZM230.145 114L218.861 86.96H227.181L232.589 102.404C233.057 103.704 233.473 105.316 233.733 106.72C233.993 105.316 234.409 103.704 234.877 102.404L240.285 86.96H248.449L237.217 114H230.145ZM260.973 114.676C252.601 114.676 246.985 108.332 246.985 100.532C246.985 92.732 252.861 86.284 260.973 86.284C269.085 86.284 274.701 92.732 274.701 100.532C274.701 101.312 274.649 102.144 274.493 103.028H254.265C255.045 106.2 257.437 108.436 260.973 108.436C263.989 108.436 266.329 106.876 267.577 104.796L273.037 108.904C270.853 112.284 266.329 114.676 260.973 114.676ZM254.265 97.776H267.629C266.849 94.76 264.301 92.316 260.869 92.316C257.541 92.316 255.045 94.552 254.265 97.776ZM297.624 114.676C291.852 114.676 286.86 112.388 283.688 106.824L289.98 102.82C291.852 106.564 294.868 108.176 298.04 108.176C301.42 108.176 303.5 106.512 303.5 104.016C303.5 100.376 299.652 99.232 295.18 98.088C289.564 96.632 285.976 93.356 285.976 87.844C285.976 81.292 291.124 76.976 298.82 76.976C304.488 76.976 308.128 79.472 310.832 83.736L304.592 87.584C302.824 84.776 301.16 83.476 298.456 83.476C295.544 83.476 293.412 85.036 293.412 87.48C293.412 90.184 296.012 91.068 299.184 92.056C303.448 93.408 310.936 95.28 310.936 103.6C310.936 110.204 305.892 114.676 297.624 114.676ZM327.253 114.676C318.881 114.676 312.849 108.332 312.849 100.532C312.849 92.732 318.881 86.336 327.253 86.336C335.625 86.336 341.657 92.732 341.657 100.532C341.657 108.332 335.625 114.676 327.253 114.676ZM319.869 100.532C319.869 104.744 322.781 108.28 327.253 108.28C331.725 108.28 334.637 104.744 334.637 100.532C334.637 96.32 331.725 92.732 327.253 92.732C322.781 92.732 319.869 96.32 319.869 100.532ZM346.13 85.14C346.13 79.68 349.666 76.04 355.126 76.04H358.038V82.02H356.218C354.138 82.02 353.15 83.112 353.15 85.244V86.96H358.662V92.94H353.15V114H346.13V92.94H342.334V86.96H346.13V85.14ZM371.765 114C366.409 114 363.497 111.504 363.497 105.628V92.94H359.701V86.96H363.497V81.5L370.517 80.772V86.96H376.237V92.94H370.517V105.264C370.517 106.98 371.349 107.76 372.701 107.76H375.613V114H371.765ZM384.912 114L376.488 86.96H384.704L388.188 102.3C388.5 103.6 388.812 105.056 389.02 106.408C389.228 105.056 389.54 103.548 389.904 102.248L393.856 86.96H401.916L406.128 102.248C406.492 103.548 406.804 105.056 407.012 106.408C407.22 105.056 407.532 103.6 407.844 102.3L411.588 86.96H419.232L410.808 114H403.216L398.796 98.608C398.38 97.308 398.068 95.904 397.86 94.552C397.652 95.904 397.392 97.308 397.028 98.608L392.972 114H384.912ZM431.787 114.676C424.351 114.676 418.423 108.384 418.423 100.584C418.423 92.784 424.351 86.388 431.787 86.388C436.467 86.388 438.911 88.312 440.367 91.224V86.96H447.335V114H440.523V109.58C439.067 112.648 436.623 114.676 431.787 114.676ZM425.443 100.532C425.443 104.64 428.459 108.332 432.931 108.332C437.559 108.332 440.523 104.796 440.523 100.584C440.523 96.372 437.559 92.732 432.931 92.732C428.459 92.732 425.443 96.32 425.443 100.532ZM451.506 114V86.96H458.318V92.108C459.254 88.208 462.01 86.076 466.69 86.336V92.94H465.702C461.646 92.94 458.526 95.644 458.526 100.168V114H451.506ZM480.653 114.676C472.281 114.676 466.665 108.332 466.665 100.532C466.665 92.732 472.541 86.284 480.653 86.284C488.765 86.284 494.381 92.732 494.381 100.532C494.381 101.312 494.329 102.144 494.173 103.028H473.945C474.725 106.2 477.117 108.436 480.653 108.436C483.669 108.436 486.009 106.876 487.257 104.796L492.717 108.904C490.533 112.284 486.009 114.676 480.653 114.676ZM473.945 97.776H487.309C486.529 94.76 483.981 92.316 480.549 92.316C477.221 92.316 474.725 94.552 473.945 97.776ZM517.304 114.676C511.532 114.676 506.54 112.388 503.368 106.824L509.66 102.82C511.532 106.564 514.548 108.176 517.72 108.176C521.1 108.176 523.18 106.512 523.18 104.016C523.18 100.376 519.332 99.232 514.86 98.088C509.244 96.632 505.656 93.356 505.656 87.844C505.656 81.292 510.804 76.976 518.5 76.976C524.168 76.976 527.808 79.472 530.512 83.736L524.272 87.584C522.504 84.776 520.84 83.476 518.136 83.476C515.224 83.476 513.092 85.036 513.092 87.48C513.092 90.184 515.692 91.068 518.864 92.056C523.128 93.408 530.616 95.28 530.616 103.6C530.616 110.204 525.572 114.676 517.304 114.676ZM546.932 114.676C538.56 114.676 532.528 108.332 532.528 100.532C532.528 92.732 538.56 86.336 546.932 86.336C555.304 86.336 561.336 92.732 561.336 100.532C561.336 108.332 555.304 114.676 546.932 114.676ZM539.548 100.532C539.548 104.744 542.46 108.28 546.932 108.28C551.404 108.28 554.316 104.744 554.316 100.532C554.316 96.32 551.404 92.732 546.932 92.732C542.46 92.732 539.548 96.32 539.548 100.532ZM564.443 114V76.04H571.463V114H564.443ZM585.651 114.624C579.827 114.624 575.355 110.308 575.355 103.496V86.96H582.375V101.78C582.375 106.46 584.299 108.488 587.783 108.488C590.747 108.488 593.399 106.46 593.399 101.78V86.96H600.419V114H593.607V109.944C592.307 113.064 589.863 114.624 585.651 114.624ZM614.804 114C609.448 114 606.536 111.504 606.536 105.628V92.94H602.74V86.96H606.536V81.5L613.556 80.772V86.96H619.276V92.94H613.556V105.264C613.556 106.98 614.388 107.76 615.74 107.76H618.652V114H614.804ZM621.623 114V86.96H628.643V114H621.623ZM620.895 80.564C620.895 78.328 622.715 76.456 625.107 76.456C627.551 76.456 629.319 78.328 629.319 80.564C629.319 82.904 627.551 84.724 625.107 84.724C622.715 84.724 620.895 82.852 620.895 80.564ZM646.159 114.676C637.787 114.676 631.755 108.332 631.755 100.532C631.755 92.732 637.787 86.336 646.159 86.336C654.531 86.336 660.563 92.732 660.563 100.532C660.563 108.332 654.531 114.676 646.159 114.676ZM638.775 100.532C638.775 104.744 641.687 108.28 646.159 108.28C650.631 108.28 653.543 104.744 653.543 100.532C653.543 96.32 650.631 92.732 646.159 92.732C641.687 92.732 638.775 96.32 638.775 100.532ZM663.67 114V86.96H670.586V90.912C671.99 87.896 674.694 86.336 678.854 86.336C684.678 86.336 689.15 90.652 689.15 97.464V114H682.13V99.18C682.13 94.5 679.79 92.472 676.306 92.472C673.342 92.472 670.69 94.5 670.69 99.18V114H663.67ZM702.328 114.676C697.752 114.676 694.06 113.116 691.096 109.944L695.828 105.628C697.804 107.864 699.884 108.956 702.172 108.956C704.564 108.956 705.916 107.76 705.916 106.148C705.916 104.744 705.24 103.964 700.976 102.976C693.748 101.26 692.656 97.984 692.656 94.552C692.656 89.82 696.4 86.284 702.744 86.284C707.112 86.284 710.024 87.376 712.78 90.964L707.684 94.864C706.384 92.784 704.72 91.952 702.9 91.952C700.976 91.952 699.52 92.68 699.52 94.344C699.52 95.28 699.936 96.112 703.16 96.944C711.012 98.972 712.832 101.884 712.832 105.94C712.832 110.932 708.308 114.676 702.328 114.676Z" fill="white"/>
</mask>
<g mask="url(#mask0_697_7084)">
<g filter="url(#filter0_f_697_7084)">
<ellipse cx="605.5" cy="51.5" rx="137.5" ry="97.5" fill="#92D7FF"/>
</g>
<g filter="url(#filter1_f_697_7084)">
<ellipse cx="198" cy="73.5" rx="198" ry="137.5" fill="#92D7FF"/>
</g>
</g>
<defs>
<filter id="filter0_f_697_7084" x="288" y="-226" width="635" height="555" filterUnits="userSpaceOnUse" color-interpolation-filters="sRGB">
<feFlood flood-opacity="0" result="BackgroundImageFix"/>
<feBlend mode="normal" in="SourceGraphic" in2="BackgroundImageFix" result="shape"/>
<feGaussianBlur stdDeviation="90" result="effect1_foregroundBlur_697_7084"/>
</filter>
<filter id="filter1_f_697_7084" x="-180" y="-244" width="756" height="635" filterUnits="userSpaceOnUse" color-interpolation-filters="sRGB">
<feFlood flood-opacity="0" result="BackgroundImageFix"/>
<feBlend mode="normal" in="SourceGraphic" in2="BackgroundImageFix" result="shape"/>
<feGaussianBlur stdDeviation="90" result="effect1_foregroundBlur_697_7084"/>
</filter>
</defs>
</svg>
