<svg width="189" height="153" viewBox="0 0 189 153" fill="none" xmlns="http://www.w3.org/2000/svg">
<mask id="mask0_3699_2266" style="mask-type:alpha" maskUnits="userSpaceOnUse" x="0" y="0" width="189" height="153">
<rect x="188.245" y="152.506" width="188.245" height="151.595" rx="19.3805" transform="rotate(180 188.245 152.506)" fill="#C4C4C4"/>
</mask>
<g mask="url(#mask0_3699_2266)">
<path d="M100.107 47.8281C100.09 43.5026 100.995 39.2244 102.76 35.2866C104.525 31.3487 107.109 27.8443 110.335 25.0135C117.256 18.6095 126.352 15.1684 135.719 15.4106C147.611 15.4106 157 19.6071 163.886 28.0001C170.766 36.3457 174.441 46.9296 174.237 57.8043C174.237 83.8406 167.193 103.434 153.106 116.583C139.02 129.733 123.426 137.013 106.325 138.423V109.863C114.943 108.933 123.101 105.456 129.787 99.8662C133.229 97.2558 136.063 93.912 138.092 90.0706C140.12 86.2291 141.294 81.9833 141.529 77.6323C138.689 79.035 135.565 79.7452 132.406 79.7064C122.192 79.7064 114.255 76.7681 108.596 70.8916C105.737 67.8144 103.514 64.1891 102.056 60.2285C100.598 56.2679 99.9356 52.0519 100.107 47.8281ZM13.1726 47.8281C13.1511 43.502 14.0542 39.2224 15.8197 35.284C17.5853 31.3455 20.1714 27.8417 23.4002 25.0135C30.3217 18.6095 39.418 15.1684 48.785 15.4106C60.649 15.4106 69.9629 19.6071 76.7268 28.0001C83.5234 36.3853 87.1496 46.9524 86.9543 57.8043C86.9543 83.8406 79.986 103.434 66.0492 116.583C52.1124 129.733 36.5392 137.04 19.3296 138.506V109.946C27.9282 108.98 36.0578 105.475 42.7098 99.8662C46.1766 97.2713 49.037 93.9337 51.0875 90.0909C53.138 86.2481 54.3283 81.9944 54.5738 77.6323C51.7412 79.0355 48.6236 79.7458 45.4713 79.7064C35.271 79.7064 27.3344 76.7681 21.6615 70.8916C18.8026 67.8154 16.5804 64.1898 15.1259 60.2286C13.6714 56.2675 13.0142 52.051 13.193 47.8281H13.1726Z" fill="#F3F5F7" fill-opacity="0.1"/>
</g>
</svg>
