<svg width="66" height="44" viewBox="0 0 66 44" fill="none" xmlns="http://www.w3.org/2000/svg">
<path d="M33.0404 40.1642C33.0404 40.9777 33.0182 41.7928 33.0489 42.6045C33.0643 43.0241 32.8324 43.0292 32.551 42.9934C32.3003 42.961 31.9115 43.1741 31.9319 42.6267C31.9439 42.2703 32.1042 41.7809 31.8518 41.5882C31.6182 41.4091 31.1526 41.5234 30.7911 41.5217C30.0101 41.5166 29.229 41.5319 28.448 41.5149C28.182 41.5097 28.095 41.595 28.1206 41.8525C28.1393 42.0333 28.1018 42.2209 28.1291 42.3999C28.2007 42.8689 28.0421 43.0343 27.5459 43.0155C27.1434 43.0002 26.9968 42.92 27.0172 42.492C27.0531 41.7127 27.0172 40.9316 27.0292 40.1523C27.0531 38.2014 28.141 37.0691 30.0919 36.989C30.8388 36.9583 31.5875 36.9719 32.3344 36.989C32.875 36.9992 33.0336 37.1765 33.037 37.7291C33.0438 38.5425 33.037 39.3559 33.037 40.1694L33.0404 40.1642ZM29.9845 40.4252C30.5336 40.4252 31.081 40.4252 31.6301 40.4252C31.8075 40.4252 31.9541 40.432 31.9473 40.1762C31.9337 39.5623 31.9388 38.9467 31.9473 38.3327C31.9473 38.1469 31.8825 38.0565 31.6881 38.0616C31.0742 38.077 30.4551 38.0411 29.8464 38.1076C28.7157 38.2304 28.153 38.904 28.1206 40.0381C28.1121 40.3246 28.1598 40.4542 28.4906 40.4337C28.9869 40.4013 29.4865 40.4252 29.9862 40.4252H29.9845Z" fill="white"/>
<path d="M3.32035 43.0071C2.3415 43.0071 1.36265 42.9951 0.383802 43.0156C0.0734358 43.0224 -0.00330321 42.9337 0.000107415 42.6285C0.0103393 41.7827 -0.00671382 41.781 0.818657 41.781H5.99598C6.34216 41.781 6.67299 41.74 6.7719 41.3256C6.88445 40.8499 6.59966 40.5378 6.0352 40.5344C4.64196 40.5258 3.24702 40.5395 1.85378 40.5207C1.00454 40.5088 0.262725 39.8966 0.0887836 39.1207C-0.136317 38.1196 0.434962 37.1766 1.43768 36.9208C1.67472 36.8594 1.92881 36.839 2.17608 36.8373C3.8183 36.8304 5.46222 36.8441 7.10443 36.8253C7.46084 36.8219 7.59045 36.8867 7.5751 37.2772C7.5427 38.0821 7.56828 38.0821 6.75314 38.0821H2.12322C1.85208 38.0821 1.59457 38.106 1.45815 38.4044C1.34048 38.6602 1.38482 38.8905 1.54682 39.1002C1.71906 39.3253 1.97656 39.3151 2.22724 39.3151C3.60513 39.3151 4.98132 39.2963 6.35921 39.327C7.75245 39.3577 8.61363 40.8277 7.94004 42.0333C7.58874 42.6626 7.00723 43.0054 6.2603 43.0054H3.32035V43.0071Z" fill="white"/>
<path d="M16.5775 36.8356C17.3415 36.8356 18.1037 36.8493 18.8677 36.8288C19.1798 36.8203 19.2975 36.8868 19.2923 37.2296C19.2787 38.0839 19.2975 38.0839 18.4687 38.0839C17.1573 38.0839 15.8476 38.0839 14.5362 38.0839C13.5693 38.0839 13.1396 38.5086 13.1294 39.4635C13.1259 39.8285 13.1191 40.1934 13.1328 40.5583C13.1601 41.2763 13.5915 41.7555 14.3043 41.7725C15.498 41.8015 16.6935 41.7879 17.8889 41.7759C18.2743 41.7725 18.5233 41.5594 18.5233 41.1637C18.5233 40.7425 18.2606 40.5362 17.8514 40.5328C16.7736 40.5259 15.6941 40.5225 14.6164 40.5362C14.335 40.5396 14.2139 40.5055 14.219 40.1712C14.2327 39.3135 14.2122 39.3135 15.0666 39.3135C16.013 39.3135 16.9578 39.3066 17.9042 39.3135C19.0417 39.3237 19.8875 40.1098 19.9011 41.1518C19.9165 42.1784 19.0468 42.9952 17.9145 43.0037C16.7361 43.0123 15.5577 43.0123 14.3793 43.0037C12.7951 42.9918 11.7566 41.9328 11.7515 40.3418V39.4959C11.7566 37.9083 12.7883 36.8595 14.3845 36.8339C15.1143 36.822 15.8442 36.8339 16.5741 36.8339H16.5775V36.8356Z" fill="white"/>
<path d="M38.5657 43.0126C37.7198 43.0126 36.874 43.0211 36.0299 43.0126C34.9146 42.9989 34.1148 42.2383 34.0943 41.1282C34.0705 39.8185 34.0943 38.5088 34.0824 37.1992C34.079 36.928 34.1455 36.8342 34.4371 36.8308C35.4279 36.8223 35.4279 36.8086 35.4279 37.7943C35.4279 38.838 35.4245 39.8833 35.4279 40.927C35.4313 41.5835 35.6342 41.7864 36.2874 41.7864C37.8784 41.7864 37.2526 41.8052 38.8436 41.7796C39.2665 41.7728 39.4183 41.8547 39.3876 42.31C39.3416 43.0126 39.3757 43.0143 38.685 43.0143C37.9057 43.0143 39.345 43.0109 38.5657 43.0109V43.0143V43.0126Z" fill="white"/>
<path d="M10.6499 39.9375C10.6499 40.8498 10.6397 41.7639 10.6568 42.6762C10.6619 42.9422 10.5783 43.0036 10.3208 43.0104C9.26693 43.036 9.26693 43.0445 9.26693 42.0111C9.26693 40.4184 9.27545 38.8256 9.2601 37.2311C9.25669 36.9054 9.34537 36.815 9.67108 36.8185C10.6499 36.827 10.6499 36.8116 10.6499 37.7973V39.9375Z" fill="white"/>
<path d="M21.6779 40.1604V38.7041C21.9115 38.8405 22.0019 39.1134 22.0821 39.2481C22.6414 40.1792 23.1086 41.0301 23.7277 41.9254C24.1421 42.5257 24.5974 43.0458 25.4228 43.0134C25.7706 42.9998 25.9292 42.8787 25.9258 42.5069C25.9139 40.9994 25.9258 38.8371 25.9258 37.2205C25.9258 36.9834 25.7382 36.789 25.5012 36.7788L25.0032 36.76C24.7526 36.7515 24.5445 36.951 24.5462 37.2034C24.5479 37.4558 24.5462 37.7559 24.5496 37.8753C24.553 38.878 24.5496 39.8807 24.5496 40.9022C24.391 40.8579 24.3706 40.7573 24.3211 40.6788C23.6629 39.6164 23.1001 38.496 22.3771 37.4694C21.9763 36.9016 21.3198 36.9715 20.6735 37.0175C20.3205 37.0431 20.3495 37.4746 20.3495 37.4746V42.6178C20.3495 42.8361 20.5268 43.0134 20.7451 43.0134H21.2737C21.492 43.0134 21.6694 42.8361 21.6694 42.6178L21.6745 40.1587H21.6779V40.1604Z" fill="white"/>
<path d="M51.9282 38.9408L51.9197 37.4691C51.9197 37.1775 52.0425 37.0155 52.2437 37.0206L53.3078 37.0411L51.9265 38.9425H51.9282V38.9408Z" fill="#E7E5F3"/>
<path d="M20.5781 38.889L20.5696 37.4174C20.5696 37.1258 20.6924 36.9638 20.8936 36.9689L21.6627 36.9825L20.5781 38.889Z" fill="white"/>
<g opacity="0.95">
<path d="M49.6623 39.9194C49.6623 39.0241 49.6691 38.1289 49.6572 37.2319C49.6538 36.9556 49.6964 36.8226 50.0306 36.8209C51.0214 36.8175 51.0214 36.8004 51.0214 37.7861C51.0214 39.3942 51.0112 41.004 51.0299 42.6121C51.0333 42.9464 50.9327 43.018 50.6173 43.0146C49.6623 43.0043 49.6623 43.018 49.6623 42.0579V39.9177V39.9194Z" fill="#FEFEFE"/>
<path d="M53.2467 40.1604V38.7041C53.4804 38.8405 53.5707 39.1134 53.6509 39.2481C54.2102 40.1792 54.6775 41.0301 55.2965 41.9254C55.7109 42.5257 56.1662 43.0458 56.9916 43.0134C57.3395 42.9998 57.4981 42.8787 57.4947 42.5069C57.4827 40.9994 57.4947 38.8371 57.4947 37.2205C57.4947 36.9834 57.3071 36.789 57.07 36.7788L56.5721 36.76C56.3214 36.7515 56.1134 36.951 56.1151 37.2034C56.1168 37.4558 56.1168 37.7559 56.1185 37.8753C56.1219 38.878 56.1185 39.8807 56.1185 40.9022C55.9599 40.8579 55.9394 40.7573 55.89 40.6788C55.2317 39.6164 54.669 38.496 53.9459 37.4694C53.5452 36.9016 52.8886 36.9715 52.2423 37.0175C51.8893 37.0431 51.9183 37.4746 51.9183 37.4746V42.6178C51.9183 42.8361 52.0957 43.0134 52.3139 43.0134H52.8426C53.0609 43.0134 53.2382 42.8361 53.2382 42.6178L53.2433 40.1587H53.2467V40.1604Z" fill="#FEFEFE"/>
<path d="M64.6266 38.0441C65.4707 38.0441 65.4503 38.0441 65.4742 37.217C65.4844 36.8606 65.3787 36.7787 65.0342 36.7855C63.924 36.8077 62.8122 36.7941 61.702 36.7941H58.7672C57.894 36.7941 57.9145 36.7941 57.9009 37.6467C57.8941 38.0031 58.0339 38.056 58.334 38.0492H60.3906C60.7112 38.0492 60.9704 38.3084 60.9721 38.6273L60.9926 42.0072C60.9687 43.1975 60.9926 42.969 61.9749 42.9775C62.3006 42.9809 62.3893 42.8923 62.3841 42.5665L62.3569 38.6205C62.3551 38.3016 62.6126 38.0424 62.9315 38.0424H64.6266V38.0441Z" fill="#FEFEFE"/>
<path opacity="0.97" d="M48.6257 40.5707C48.6257 41.2682 48.6121 41.9657 48.6326 42.6615C48.6411 42.9514 48.5456 43.0111 48.271 43.0128C47.2837 43.0179 47.2837 43.0281 47.2837 42.0458C47.2837 41.0636 47.2888 40.153 47.2802 39.2082C47.2768 38.8228 47.403 38.3214 46.9392 38.1594C46.4617 37.9923 45.9279 37.9855 45.4607 38.3044C45.0497 38.5858 44.9303 39.0002 44.9286 39.4674C44.9269 40.5298 44.9184 41.5922 44.9337 42.6546C44.9371 42.9326 44.8638 43.0128 44.5807 43.0145C43.5712 43.0213 43.5712 43.0332 43.5712 42.0117C43.5712 41.1813 43.5661 40.3525 43.5712 39.522C43.5831 38.1714 42.6606 37.9548 41.6732 38.1219C41.2946 38.185 41.2315 38.509 41.2332 38.8518C41.24 40.1137 41.2247 41.3757 41.2434 42.6359C41.2486 42.9514 41.1582 43.0162 40.8563 43.0145C39.8604 43.0093 39.8604 43.023 39.8604 42.0475C39.8604 41.0721 39.8962 40.1871 39.8536 39.2594C39.7564 37.1925 41.0934 36.6213 42.8294 36.8788C43.2932 36.947 43.7264 37.1277 44.0606 37.4688C44.2243 37.6359 44.3096 37.583 44.4563 37.4586C45.3089 36.7355 46.3116 36.7048 47.3263 36.9384C48.0783 37.1124 48.6002 37.8491 48.6189 38.6284C48.6343 39.2747 48.6223 39.9227 48.6223 40.5707H48.6257Z" fill="#FEFEFE"/>
<path d="M39.8618 38.8039V37.339C39.8618 37.0354 40.1108 36.7899 40.4143 36.795L42.0173 36.8223L39.8618 38.8039Z" fill="#FEFEFE"/>
<path d="M48.634 38.8039V37.339C48.634 37.0354 48.3851 36.7899 48.0815 36.795L46.4785 36.8223L48.634 38.8039Z" fill="#FEFEFE"/>
<path opacity="0.95" d="M35.3137 16.9935C35.8321 13.4976 36.2857 11.354 40.109 11.5416C41.7512 11.6217 43.4122 13.5999 43.2332 15.7128C43.0575 17.7933 41.1425 19.3587 38.8659 19.3502C38.3867 19.3485 36.2482 19.5259 34.5344 21.2926C32.6193 23.2673 32.7284 25.7366 32.7336 26.1459C32.754 28.0695 31.2858 29.681 29.4713 30.0169C27.5034 30.3819 25.1807 29.2257 24.8908 27.1503C24.8056 26.5432 24.8636 23.9767 22.9059 21.7939C20.5235 19.1388 17.2169 19.2854 16.7497 19.207C15.0648 18.929 14.0945 17.1077 14.0996 15.4928C14.1047 13.6187 15.515 11.753 17.5188 11.5979C17.9911 11.5603 20.735 11.5945 22.795 9.41677C24.2445 7.8837 24.5464 6.12211 24.6385 5.47068C25.1108 2.08223 26.5569 0.182516 30.0665 0.922621C31.736 1.27391 33.0149 3.58291 32.4829 5.68726C31.9611 7.75239 29.8567 8.76535 27.6023 8.69543C25.0955 8.61869 23.0116 10.6838 22.1726 13.0065C20.839 16.7019 23.5522 19.7169 23.6886 19.8618C23.8404 20.0238 26.3915 22.667 30.0409 21.9355C32.5613 21.4307 34.9266 19.5838 35.3103 16.9935H35.3137Z" fill="#FEFEFE"/>
</g>
<path opacity="0.95" d="M32.8497 13.8607C32.3313 17.3566 31.8777 19.5002 28.0544 19.3126C26.4122 19.2324 24.7512 17.2543 24.9303 15.1414C25.1059 13.0609 27.021 11.4954 29.2976 11.504C29.7768 11.504 31.9152 11.3283 33.6291 9.56162C35.5441 7.58687 35.435 5.11758 35.4299 4.70831C35.4094 2.78471 36.8777 1.1732 38.6921 0.83725C40.6601 0.472313 42.9827 1.62851 43.2726 3.70388C43.3579 4.31097 43.2999 6.87746 45.2576 9.06026C47.6399 11.7154 50.9465 11.5688 51.4138 11.6472C53.0986 11.9252 54.0689 13.7465 54.0638 15.3614C54.0587 17.2355 52.6484 19.1011 50.6447 19.2563C50.1723 19.2938 47.4285 19.2597 45.3684 21.4374C43.9189 22.9705 43.6171 24.7321 43.525 25.3835C43.0526 28.7719 41.6065 30.6717 38.097 29.9316C36.4275 29.5803 35.1485 27.2713 35.6806 25.1669C36.2024 23.1018 38.3067 22.0888 40.5612 22.1588C43.068 22.2355 45.1519 20.1704 45.9909 17.8477C47.3244 14.1523 44.6113 11.1373 44.4748 10.9924C44.3231 10.8304 41.7719 8.18714 38.1226 8.91872C35.6021 9.42349 33.2369 11.2703 32.8532 13.8607H32.8497Z" fill="white"/>
</svg>
