<svg width="328" height="306" viewBox="0 0 328 306" fill="none" xmlns="http://www.w3.org/2000/svg">
<g filter="url(#filter0_f_3286_21108)">
<path d="M33 14H311.26L261.441 208.718L106.885 240.292L33 14Z" fill="url(#paint0_linear_3286_21108)"/>
</g>
<g filter="url(#filter1_f_3286_21108)">
<ellipse cx="173.61" cy="194.079" rx="80.9124" ry="78.61" fill="url(#paint1_linear_3286_21108)"/>
</g>
<g opacity="0.4" filter="url(#filter2_f_3286_21108)">
<ellipse cx="173.61" cy="194.08" rx="74.1697" ry="72.0318" fill="url(#paint2_linear_3286_21108)"/>
</g>
<g opacity="0.3" filter="url(#filter3_f_3286_21108)">
<path d="M167.607 30.6101C173.034 98.1193 144.501 144.249 138.334 79.4536C96.9734 100.915 109.458 164.948 78.0609 139.992C83.7882 191.963 122.39 210.252 100.998 206.353C137.85 240.702 194.926 242.744 218.65 215.451C214.046 215.451 213.594 215.172 213.594 210.252C250.402 203.359 268.226 179.029 267.837 162.436C265.827 167.08 263.627 174.998 253.744 176.274C241.391 177.87 265.211 122.76 249.453 111.378C218.65 143.016 218.65 61.4456 167.607 30.6101Z" fill="url(#paint3_linear_3286_21108)"/>
</g>
<g filter="url(#filter4_f_3286_21108)">
<path d="M194.139 73.8621C220.567 82.3315 221.143 151.135 236.177 114.98C246.389 144.674 226.653 190.776 253.207 167.303C248.363 216.184 215.715 233.385 233.807 229.718C202.64 262.024 154.368 263.945 134.303 238.274C138.197 238.274 138.579 238.012 138.579 233.385C107.449 226.902 92.3737 204.019 92.7028 188.412C94.403 192.781 96.2632 200.227 104.622 201.428C115.07 202.929 94.924 151.096 108.251 140.391C121.233 189.815 113.667 124.679 144.67 107.303C151.249 151.131 200.338 112.891 194.139 73.8621Z" fill="url(#paint4_linear_3286_21108)"/>
</g>
<g filter="url(#filter5_f_3286_21108)">
<path d="M215.681 80.3752C220.856 121.261 180.551 106.091 186.767 44.0132C161.918 62.4323 148.517 93.5783 136.032 105.684C128.481 113.006 104.725 107 115.639 80.3752C89.776 106.872 103.992 143.458 81.4324 122.788C69.756 282.146 311.686 293.178 246.622 109.512C235.593 153.035 242.021 95.6761 215.681 80.3752Z" fill="url(#paint5_radial_3286_21108)"/>
</g>
<g opacity="0.1" filter="url(#filter6_f_3286_21108)">
<path d="M175.604 69.7507C151.579 76.3225 148.358 139.931 134.691 111.877C107.018 135.225 116.322 168.54 92.1827 150.327C42.9023 286.155 320.601 293.43 250.983 131.595C239.182 169.944 246.059 119.403 217.876 105.921C223.413 141.947 168.953 124.45 175.604 69.7507Z" fill="url(#paint6_linear_3286_21108)"/>
</g>
<g filter="url(#filter7_f_3286_21108)">
<path d="M175.337 83.647C155.894 89.5152 153.288 146.314 142.228 121.263C119.833 142.111 127.362 171.86 107.827 155.597C67.9469 276.883 292.676 283.379 236.337 138.87C226.787 173.114 232.353 127.983 209.546 115.945C214.027 148.114 169.955 132.49 175.337 83.647Z" fill="url(#paint7_linear_3286_21108)"/>
</g>
<mask id="mask0_3286_21108" style="mask-type:alpha" maskUnits="userSpaceOnUse" x="110" y="136" width="128" height="116">
<path d="M196.206 138.761C182.251 135.134 167.6 135.134 153.645 138.761L149.305 139.889C125.804 145.996 109.796 167.733 110.938 191.988L111.153 196.56C111.99 214.333 123.354 229.891 140.03 236.093C141.895 236.786 143.481 238.071 144.547 239.751L148.298 245.665C149.862 248.132 152.259 249.955 155.053 250.805L155.267 250.87C155.787 251.028 156.329 251.097 156.871 251.073C159.519 250.958 161.745 249.049 162.263 246.45L162.331 246.108C162.762 243.95 165.818 243.87 166.36 246.003L166.493 246.525C167.159 249.149 169.368 251.094 172.055 251.424L174.166 251.683C174.818 251.763 175.477 251.763 176.129 251.683L178.025 251.45C180.842 251.105 183.157 249.066 183.856 246.316L183.95 245.945C184.517 243.709 187.705 243.743 188.226 245.99L188.344 246.501C188.944 249.088 191.194 250.957 193.846 251.072C194.403 251.096 194.96 251.026 195.493 250.864L195.654 250.815C198.461 249.961 200.851 248.093 202.357 245.575L205.868 239.707C206.856 238.055 208.353 236.766 210.133 236.033C225.291 229.795 235.661 215.574 236.967 199.235L237.387 193.979C239.403 168.757 223.018 145.728 198.529 139.364L196.206 138.761Z" fill="#FFF0D3"/>
</mask>
<g mask="url(#mask0_3286_21108)">
<g filter="url(#filter8_di_3286_21108)">
<path d="M196.206 138.761C182.251 135.134 167.6 135.134 153.645 138.761L149.305 139.889C125.804 145.996 109.796 167.733 110.938 191.988L111.153 196.56C111.99 214.333 123.354 229.891 140.03 236.093C141.895 236.786 143.481 238.071 144.547 239.751L148.298 245.665C149.862 248.132 152.259 249.955 155.053 250.805L155.267 250.87C155.787 251.028 156.329 251.097 156.871 251.073C159.519 250.958 161.745 249.049 162.263 246.45L162.331 246.108C162.762 243.95 165.818 243.87 166.36 246.003L166.493 246.525C167.159 249.149 169.368 251.094 172.055 251.424L174.166 251.683C174.818 251.763 175.477 251.763 176.129 251.683L178.025 251.45C180.842 251.105 183.157 249.066 183.856 246.316L183.95 245.945C184.517 243.709 187.705 243.743 188.226 245.99L188.344 246.501C188.944 249.088 191.194 250.957 193.846 251.072C194.403 251.096 194.96 251.026 195.493 250.864L195.654 250.815C198.461 249.961 200.851 248.093 202.357 245.575L205.868 239.707C206.856 238.055 208.353 236.766 210.133 236.033C225.291 229.795 235.661 215.574 236.967 199.235L237.387 193.979C239.403 168.757 223.018 145.728 198.529 139.364L196.206 138.761Z" fill="url(#paint8_radial_3286_21108)"/>
</g>
<g filter="url(#filter9_f_3286_21108)">
<ellipse cx="155.191" cy="140.796" rx="22.366" ry="8.71618" fill="white"/>
</g>
<g filter="url(#filter10_f_3286_21108)">
<ellipse cx="155.191" cy="140.796" rx="14.3077" ry="5.59151" fill="white"/>
</g>
<g opacity="0.4" filter="url(#filter11_f_3286_21108)">
<path d="M132.948 220.033C132.324 211.667 138.311 204.257 146.621 203.109L166.828 200.318C170.728 199.78 174.683 199.78 178.583 200.318L198.71 203.098C207.056 204.251 213.057 211.709 212.395 220.108C211.338 233.545 200.125 243.91 186.647 243.91H158.672C145.17 243.91 133.952 233.498 132.948 220.033Z" fill="url(#paint9_linear_3286_21108)"/>
</g>
<g filter="url(#filter12_dd_3286_21108)">
<circle cx="142.939" cy="182.321" r="17.0212" fill="url(#paint10_linear_3286_21108)"/>
</g>
<g filter="url(#filter13_dd_3286_21108)">
<circle cx="206.912" cy="182.321" r="17.0212" fill="url(#paint11_linear_3286_21108)"/>
</g>
<g filter="url(#filter14_f_3286_21108)">
<ellipse cx="15.2742" cy="3.48897" rx="15.2742" ry="3.48897" transform="matrix(0.771824 -0.635836 0.664722 0.747091 190.22 250.224)" fill="white"/>
</g>
<g filter="url(#filter15_f_3286_21108)">
<ellipse cx="5.21105" cy="1.84844" rx="5.21105" ry="1.84844" transform="matrix(0.771824 -0.635836 0.664722 0.747091 196.041 249.562)" fill="white"/>
</g>
<g filter="url(#filter16_f_3286_21108)">
<ellipse cx="182.552" cy="250.782" rx="7.66556" ry="3.93128" transform="rotate(-40.5683 182.552 250.782)" fill="white"/>
</g>
<g filter="url(#filter17_f_3286_21108)">
<ellipse cx="161.183" cy="251.759" rx="11.0174" ry="3.93128" transform="rotate(-40.5683 161.183 251.759)" fill="white"/>
</g>
</g>
<g filter="url(#filter18_f_3286_21108)">
<ellipse cx="168.347" cy="137.013" rx="26.8063" ry="14.9655" fill="url(#paint12_linear_3286_21108)"/>
</g>
<defs>
<filter id="filter0_f_3286_21108" x="0.108772" y="-18.8912" width="344.042" height="292.074" filterUnits="userSpaceOnUse" color-interpolation-filters="sRGB">
<feFlood flood-opacity="0" result="BackgroundImageFix"/>
<feBlend mode="normal" in="SourceGraphic" in2="BackgroundImageFix" result="shape"/>
<feGaussianBlur stdDeviation="16.4456" result="effect1_foregroundBlur_3286_21108"/>
</filter>
<filter id="filter1_f_3286_21108" x="59.8063" y="82.578" width="227.607" height="223.002" filterUnits="userSpaceOnUse" color-interpolation-filters="sRGB">
<feFlood flood-opacity="0" result="BackgroundImageFix"/>
<feBlend mode="normal" in="SourceGraphic" in2="BackgroundImageFix" result="shape"/>
<feGaussianBlur stdDeviation="16.4456" result="effect1_foregroundBlur_3286_21108"/>
</filter>
<filter id="filter2_f_3286_21108" x="66.549" y="89.1566" width="214.122" height="209.846" filterUnits="userSpaceOnUse" color-interpolation-filters="sRGB">
<feFlood flood-opacity="0" result="BackgroundImageFix"/>
<feBlend mode="normal" in="SourceGraphic" in2="BackgroundImageFix" result="shape"/>
<feGaussianBlur stdDeviation="16.4456" result="effect1_foregroundBlur_3286_21108"/>
</filter>
<filter id="filter3_f_3286_21108" x="46.8144" y="-0.636557" width="252.276" height="266.09" filterUnits="userSpaceOnUse" color-interpolation-filters="sRGB">
<feFlood flood-opacity="0" result="BackgroundImageFix"/>
<feBlend mode="normal" in="SourceGraphic" in2="BackgroundImageFix" result="shape"/>
<feGaussianBlur stdDeviation="15.6233" result="effect1_foregroundBlur_3286_21108"/>
</filter>
<filter id="filter4_f_3286_21108" x="79.541" y="60.7056" width="186.822" height="208.366" filterUnits="userSpaceOnUse" color-interpolation-filters="sRGB">
<feFlood flood-opacity="0" result="BackgroundImageFix"/>
<feBlend mode="normal" in="SourceGraphic" in2="BackgroundImageFix" result="shape"/>
<feGaussianBlur stdDeviation="6.57825" result="effect1_foregroundBlur_3286_21108"/>
</filter>
<filter id="filter5_f_3286_21108" x="73.7067" y="36.6979" width="191.361" height="215.403" filterUnits="userSpaceOnUse" color-interpolation-filters="sRGB">
<feFlood flood-opacity="0" result="BackgroundImageFix"/>
<feBlend mode="normal" in="SourceGraphic" in2="BackgroundImageFix" result="shape"/>
<feGaussianBlur stdDeviation="3.65766" result="effect1_foregroundBlur_3286_21108"/>
</filter>
<filter id="filter6_f_3286_21108" x="53.3925" y="36.8595" width="241.75" height="248.658" filterUnits="userSpaceOnUse" color-interpolation-filters="sRGB">
<feFlood flood-opacity="0" result="BackgroundImageFix"/>
<feBlend mode="normal" in="SourceGraphic" in2="BackgroundImageFix" result="shape"/>
<feGaussianBlur stdDeviation="16.4456" result="effect1_foregroundBlur_3286_21108"/>
</filter>
<filter id="filter7_f_3286_21108" x="97.2975" y="77.891" width="153.915" height="174.808" filterUnits="userSpaceOnUse" color-interpolation-filters="sRGB">
<feFlood flood-opacity="0" result="BackgroundImageFix"/>
<feBlend mode="normal" in="SourceGraphic" in2="BackgroundImageFix" result="shape"/>
<feGaussianBlur stdDeviation="2.87798" result="effect1_foregroundBlur_3286_21108"/>
</filter>
<filter id="filter8_di_3286_21108" x="105.453" y="131.872" width="135.061" height="122.173" filterUnits="userSpaceOnUse" color-interpolation-filters="sRGB">
<feFlood flood-opacity="0" result="BackgroundImageFix"/>
<feColorMatrix in="SourceAlpha" type="matrix" values="0 0 0 0 0 0 0 0 0 0 0 0 0 0 0 0 0 0 127 0" result="hardAlpha"/>
<feOffset dx="2.13793" dy="1.48011"/>
<feGaussianBlur stdDeviation="0.41114"/>
<feColorMatrix type="matrix" values="0 0 0 0 1 0 0 0 0 0 0 0 0 0 0.12 0 0 0 1 0"/>
<feBlend mode="normal" in2="BackgroundImageFix" result="effect1_dropShadow_3286_21108"/>
<feBlend mode="normal" in="SourceGraphic" in2="effect1_dropShadow_3286_21108" result="shape"/>
<feColorMatrix in="SourceAlpha" type="matrix" values="0 0 0 0 0 0 0 0 0 0 0 0 0 0 0 0 0 0 127 0" result="hardAlpha"/>
<feOffset dx="-5.42705" dy="-4.16858"/>
<feGaussianBlur stdDeviation="4.16858"/>
<feComposite in2="hardAlpha" operator="arithmetic" k2="-1" k3="1"/>
<feColorMatrix type="matrix" values="0 0 0 0 0 0 0 0 0 1 0 0 0 0 0.94 0 0 0 0.31 0"/>
<feBlend mode="normal" in2="shape" result="effect2_innerShadow_3286_21108"/>
</filter>
<filter id="filter9_f_3286_21108" x="116.379" y="115.634" width="77.6234" height="50.3236" filterUnits="userSpaceOnUse" color-interpolation-filters="sRGB">
<feFlood flood-opacity="0" result="BackgroundImageFix"/>
<feBlend mode="normal" in="SourceGraphic" in2="BackgroundImageFix" result="shape"/>
<feGaussianBlur stdDeviation="8.22281" result="effect1_foregroundBlur_3286_21108"/>
</filter>
<filter id="filter10_f_3286_21108" x="124.437" y="118.758" width="61.5067" height="44.0743" filterUnits="userSpaceOnUse" color-interpolation-filters="sRGB">
<feFlood flood-opacity="0" result="BackgroundImageFix"/>
<feBlend mode="normal" in="SourceGraphic" in2="BackgroundImageFix" result="shape"/>
<feGaussianBlur stdDeviation="8.22281" result="effect1_foregroundBlur_3286_21108"/>
</filter>
<filter id="filter11_f_3286_21108" x="108.235" y="175.246" width="128.879" height="93.3322" filterUnits="userSpaceOnUse" color-interpolation-filters="sRGB">
<feFlood flood-opacity="0" result="BackgroundImageFix"/>
<feBlend mode="normal" in="SourceGraphic" in2="BackgroundImageFix" result="shape"/>
<feGaussianBlur stdDeviation="12.3342" result="effect1_foregroundBlur_3286_21108"/>
</filter>
<filter id="filter12_dd_3286_21108" x="116.945" y="160.022" width="55.6819" height="56.7374" filterUnits="userSpaceOnUse" color-interpolation-filters="sRGB">
<feFlood flood-opacity="0" result="BackgroundImageFix"/>
<feColorMatrix in="SourceAlpha" type="matrix" values="0 0 0 0 0 0 0 0 0 0 0 0 0 0 0 0 0 0 127 0" result="hardAlpha"/>
<feOffset dx="1.84726" dy="6.59737"/>
<feGaussianBlur stdDeviation="5.40984"/>
<feColorMatrix type="matrix" values="0 0 0 0 0.758333 0 0 0 0 0.408363 0 0 0 0 0.0853125 0 0 0 0.77 0"/>
<feBlend mode="normal" in2="BackgroundImageFix" result="effect1_dropShadow_3286_21108"/>
<feColorMatrix in="SourceAlpha" type="matrix" values="0 0 0 0 0 0 0 0 0 0 0 0 0 0 0 0 0 0 127 0" result="hardAlpha"/>
<feOffset dx="-1.31947" dy="-1.31947"/>
<feGaussianBlur stdDeviation="1.97921"/>
<feColorMatrix type="matrix" values="0 0 0 0 1 0 0 0 0 1 0 0 0 0 1 0 0 0 0.59 0"/>
<feBlend mode="normal" in2="effect1_dropShadow_3286_21108" result="effect2_dropShadow_3286_21108"/>
<feBlend mode="normal" in="SourceGraphic" in2="effect2_dropShadow_3286_21108" result="shape"/>
</filter>
<filter id="filter13_dd_3286_21108" x="177.224" y="160.022" width="55.6819" height="56.7374" filterUnits="userSpaceOnUse" color-interpolation-filters="sRGB">
<feFlood flood-opacity="0" result="BackgroundImageFix"/>
<feColorMatrix in="SourceAlpha" type="matrix" values="0 0 0 0 0 0 0 0 0 0 0 0 0 0 0 0 0 0 127 0" result="hardAlpha"/>
<feOffset dx="-1.84726" dy="6.59737"/>
<feGaussianBlur stdDeviation="5.40984"/>
<feColorMatrix type="matrix" values="0 0 0 0 0.758333 0 0 0 0 0.408363 0 0 0 0 0.0853125 0 0 0 0.77 0"/>
<feBlend mode="normal" in2="BackgroundImageFix" result="effect1_dropShadow_3286_21108"/>
<feColorMatrix in="SourceAlpha" type="matrix" values="0 0 0 0 0 0 0 0 0 0 0 0 0 0 0 0 0 0 127 0" result="hardAlpha"/>
<feOffset dx="1.31947" dy="-1.31947"/>
<feGaussianBlur stdDeviation="1.97921"/>
<feColorMatrix type="matrix" values="0 0 0 0 1 0 0 0 0 1 0 0 0 0 1 0 0 0 0.59 0"/>
<feBlend mode="normal" in2="effect1_dropShadow_3286_21108" result="effect2_dropShadow_3286_21108"/>
<feBlend mode="normal" in="SourceGraphic" in2="effect2_dropShadow_3286_21108" result="shape"/>
</filter>
<filter id="filter14_f_3286_21108" x="180.799" y="221.548" width="47.0583" height="43.1403" filterUnits="userSpaceOnUse" color-interpolation-filters="sRGB">
<feFlood flood-opacity="0" result="BackgroundImageFix"/>
<feBlend mode="normal" in="SourceGraphic" in2="BackgroundImageFix" result="shape"/>
<feGaussianBlur stdDeviation="5.75596" result="effect1_foregroundBlur_3286_21108"/>
</filter>
<filter id="filter15_f_3286_21108" x="190.506" y="237.461" width="21.5696" height="20.3376" filterUnits="userSpaceOnUse" color-interpolation-filters="sRGB">
<feFlood flood-opacity="0" result="BackgroundImageFix"/>
<feBlend mode="normal" in="SourceGraphic" in2="BackgroundImageFix" result="shape"/>
<feGaussianBlur stdDeviation="3.28912" result="effect1_foregroundBlur_3286_21108"/>
</filter>
<filter id="filter16_f_3286_21108" x="164.679" y="233.458" width="35.7463" height="34.6484" filterUnits="userSpaceOnUse" color-interpolation-filters="sRGB">
<feFlood flood-opacity="0" result="BackgroundImageFix"/>
<feBlend mode="normal" in="SourceGraphic" in2="BackgroundImageFix" result="shape"/>
<feGaussianBlur stdDeviation="5.75596" result="effect1_foregroundBlur_3286_21108"/>
</filter>
<filter id="filter17_f_3286_21108" x="140.918" y="232.482" width="40.5304" height="38.5532" filterUnits="userSpaceOnUse" color-interpolation-filters="sRGB">
<feFlood flood-opacity="0" result="BackgroundImageFix"/>
<feBlend mode="normal" in="SourceGraphic" in2="BackgroundImageFix" result="shape"/>
<feGaussianBlur stdDeviation="5.75596" result="effect1_foregroundBlur_3286_21108"/>
</filter>
<filter id="filter18_f_3286_21108" x="119.656" y="100.163" width="97.3834" height="73.7015" filterUnits="userSpaceOnUse" color-interpolation-filters="sRGB">
<feFlood flood-opacity="0" result="BackgroundImageFix"/>
<feBlend mode="normal" in="SourceGraphic" in2="BackgroundImageFix" result="shape"/>
<feGaussianBlur stdDeviation="10.9427" result="effect1_foregroundBlur_3286_21108"/>
</filter>
<linearGradient id="paint0_linear_3286_21108" x1="229.816" y1="30.7421" x2="190.668" y2="200.342" gradientUnits="userSpaceOnUse">
<stop stop-color="#B9FF8D" stop-opacity="0"/>
<stop offset="0.50718" stop-color="#46FF85" stop-opacity="0.12"/>
<stop offset="1" stop-color="#FFE600" stop-opacity="0"/>
</linearGradient>
<linearGradient id="paint1_linear_3286_21108" x1="173.61" y1="115.469" x2="173.61" y2="272.689" gradientUnits="userSpaceOnUse">
<stop stop-color="#50FF76" stop-opacity="0.38"/>
<stop offset="1" stop-color="#50FFA0" stop-opacity="0"/>
</linearGradient>
<linearGradient id="paint2_linear_3286_21108" x1="173.61" y1="122.048" x2="173.61" y2="189.704" gradientUnits="userSpaceOnUse">
<stop stop-color="#FFFACE"/>
<stop offset="1" stop-color="white" stop-opacity="0"/>
</linearGradient>
<linearGradient id="paint3_linear_3286_21108" x1="172.562" y1="48.8324" x2="172.562" y2="239.357" gradientUnits="userSpaceOnUse">
<stop stop-color="#A6FFEA" stop-opacity="0.95"/>
<stop offset="1" stop-color="#F6EB4E" stop-opacity="0"/>
</linearGradient>
<linearGradient id="paint4_linear_3286_21108" x1="231.91" y1="98.2016" x2="173.282" y2="260.759" gradientUnits="userSpaceOnUse">
<stop stop-color="#FFFBA0" stop-opacity="0.15"/>
<stop offset="1" stop-color="#3AFFE7" stop-opacity="0.06"/>
</linearGradient>
<radialGradient id="paint5_radial_3286_21108" cx="0" cy="0" r="1" gradientUnits="userSpaceOnUse" gradientTransform="translate(143.597 122.87) rotate(-0.802419) scale(58.7166 95.1026)">
<stop stop-color="#EDFFA4" stop-opacity="0.3"/>
<stop offset="1" stop-color="#B2FF50" stop-opacity="0"/>
</radialGradient>
<linearGradient id="paint6_linear_3286_21108" x1="250.592" y1="116.531" x2="163.658" y2="227.411" gradientUnits="userSpaceOnUse">
<stop stop-color="#301758"/>
<stop offset="1" stop-color="#301658"/>
</linearGradient>
<linearGradient id="paint7_linear_3286_21108" x1="236.021" y1="125.419" x2="156.918" y2="216.856" gradientUnits="userSpaceOnUse">
<stop stop-color="#EDFFA4" stop-opacity="0.3"/>
<stop offset="1" stop-color="#B2FF50" stop-opacity="0.17"/>
</linearGradient>
<radialGradient id="paint8_radial_3286_21108" cx="0" cy="0" r="1" gradientTransform="matrix(-2.05571 105.334 -85.1594 0.00756093 174.925 150.005)" gradientUnits="userSpaceOnUse">
<stop stop-color="#FFF0D3"/>
<stop offset="0.420971" stop-color="#FFED48" stop-opacity="0.990923"/>
<stop offset="0.829897" stop-color="#FFD643" stop-opacity="0.77"/>
<stop offset="1" stop-color="#C69F17"/>
</radialGradient>
<linearGradient id="paint9_linear_3286_21108" x1="172.705" y1="199.507" x2="172.705" y2="243.91" gradientUnits="userSpaceOnUse">
<stop stop-color="#9E4722"/>
<stop offset="1" stop-color="#BB391C" stop-opacity="0.87"/>
</linearGradient>
<linearGradient id="paint10_linear_3286_21108" x1="142.939" y1="167.741" x2="142.952" y2="202.359" gradientUnits="userSpaceOnUse">
<stop stop-color="#2E1E65"/>
<stop offset="1" stop-color="#11082F"/>
</linearGradient>
<linearGradient id="paint11_linear_3286_21108" x1="206.912" y1="167.741" x2="206.926" y2="202.359" gradientUnits="userSpaceOnUse">
<stop stop-color="#2E1E65"/>
<stop offset="1" stop-color="#11082F"/>
</linearGradient>
<linearGradient id="paint12_linear_3286_21108" x1="145.093" y1="128.386" x2="156.642" y2="154.272" gradientUnits="userSpaceOnUse">
<stop stop-color="white" stop-opacity="0.71"/>
<stop offset="1" stop-color="#FFFFF8" stop-opacity="0.7"/>
</linearGradient>
</defs>
</svg>
