<svg width="21" height="23" viewBox="0 0 21 23" fill="none" xmlns="http://www.w3.org/2000/svg">
<path d="M10.1798 0.389648C15.7855 0.389648 20.3294 4.93361 20.3294 10.5392C20.3294 16.1448 15.7855 20.6888 10.1798 20.6888C4.57424 20.6888 0.0302734 16.1448 0.0302734 10.5392C0.0302734 4.93361 4.57424 0.389648 10.1798 0.389648ZM10.1798 4.44948C9.91066 4.44948 9.6525 4.55641 9.46216 4.74675C9.27182 4.93709 9.16489 5.19525 9.16489 5.46443V10.5392C9.16495 10.8084 9.27192 11.0665 9.46227 11.2568L12.5071 14.3017C12.6986 14.4865 12.9549 14.5889 13.2211 14.5865C13.4872 14.5842 13.7417 14.4775 13.9299 14.2893C14.1181 14.1011 14.2249 13.8466 14.2272 13.5804C14.2295 13.3143 14.1272 13.0579 13.9423 12.8665L11.1948 10.119V5.46443C11.1948 5.19525 11.0879 4.93709 10.8975 4.74675C10.7072 4.55641 10.449 4.44948 10.1798 4.44948Z" fill="#4C96FF"/>
</svg>
