<svg width="25" height="25" viewBox="0 0 25 25" fill="none" xmlns="http://www.w3.org/2000/svg">
<path d="M1.46289 20.6583V17.8164C1.46289 17.2413 1.61107 16.7128 1.90744 16.231C2.20381 15.7493 2.59694 15.3812 3.08682 15.1268C4.13561 14.6024 5.20132 14.2092 6.28394 13.9474C7.36656 13.6855 8.4661 13.5543 9.58255 13.5536C10.699 13.5529 11.7985 13.6842 12.8812 13.9474C13.9638 14.2106 15.0295 14.6037 16.0783 15.1268C16.5688 15.3805 16.9623 15.7486 17.2587 16.231C17.555 16.7135 17.7029 17.2419 17.7022 17.8164V20.6583H1.46289ZM19.7321 20.6583V17.6134C19.7321 16.8691 19.5251 16.1542 19.111 15.4688C18.6969 14.7834 18.1089 14.1957 17.347 13.7058C18.2097 13.8073 19.0217 13.9809 19.7829 14.2265C20.5441 14.4721 21.2546 14.7722 21.9143 15.1268C22.5233 15.4651 22.9884 15.8413 23.3098 16.2554C23.6313 16.6695 23.792 17.1222 23.792 17.6134V20.6583H19.7321ZM9.58255 12.5386C8.4661 12.5386 7.51034 12.1411 6.71529 11.3461C5.92025 10.551 5.52272 9.59525 5.52272 8.4788C5.52272 7.36235 5.92025 6.4066 6.71529 5.61155C7.51034 4.8165 8.4661 4.41897 9.58255 4.41897C10.699 4.41897 11.6548 4.8165 12.4498 5.61155C13.2449 6.4066 13.6424 7.36235 13.6424 8.4788C13.6424 9.59525 13.2449 10.551 12.4498 11.3461C11.6548 12.1411 10.699 12.5386 9.58255 12.5386ZM19.7321 8.4788C19.7321 9.59525 19.3346 10.551 18.5395 11.3461C17.7445 12.1411 16.7887 12.5386 15.6723 12.5386C15.4862 12.5386 15.2494 12.5177 14.9618 12.4757C14.6743 12.4338 14.4374 12.3871 14.2514 12.3356C14.7081 11.7943 15.0593 11.1938 15.3049 10.5341C15.5505 9.87437 15.673 9.18927 15.6723 8.4788C15.6716 7.76833 15.5491 7.08323 15.3049 6.42351C15.0606 5.76379 14.7094 5.16327 14.2514 4.62196C14.4882 4.53738 14.725 4.48224 14.9618 4.45652C15.1986 4.43081 15.4355 4.41829 15.6723 4.41897C16.7887 4.41897 17.7445 4.8165 18.5395 5.61155C19.3346 6.4066 19.7321 7.36235 19.7321 8.4788Z" fill="#4C96FF"/>
</svg>
