<svg width="25" height="25" viewBox="0 0 25 25" fill="none" xmlns="http://www.w3.org/2000/svg">
<path d="M12.1799 11.6724C11.5069 11.6724 10.8615 11.405 10.3857 10.9292C9.90983 10.4533 9.6425 9.80793 9.6425 9.13497C9.6425 8.46202 9.90983 7.81662 10.3857 7.34077C10.8615 6.86491 11.5069 6.59758 12.1799 6.59758C12.8529 6.59758 13.4983 6.86491 13.9741 7.34077C14.45 7.81662 14.7173 8.46202 14.7173 9.13497C14.7173 9.46819 14.6517 9.79814 14.5241 10.106C14.3966 10.4138 14.2097 10.6936 13.9741 10.9292C13.7385 11.1648 13.4588 11.3517 13.1509 11.4792C12.8431 11.6067 12.5131 11.6724 12.1799 11.6724ZM12.1799 2.03027C10.2956 2.03027 8.4885 2.7788 7.15611 4.11119C5.82372 5.44358 5.0752 7.25069 5.0752 9.13497C5.0752 14.4635 12.1799 22.3294 12.1799 22.3294C12.1799 22.3294 19.2846 14.4635 19.2846 9.13497C19.2846 7.25069 18.5361 5.44358 17.2037 4.11119C15.8713 2.7788 14.0642 2.03027 12.1799 2.03027Z" fill="#4C96FF"/>
</svg>
