<svg width="25" height="25" viewBox="0 0 25 25" fill="none" xmlns="http://www.w3.org/2000/svg">
<path d="M14.1503 16.2392C14.1503 16.643 13.9899 17.0302 13.7044 17.3158C13.4189 17.6013 13.0317 17.7617 12.6279 17.7617C12.2241 17.7617 11.8369 17.6013 11.5514 17.3158C11.2659 17.0302 11.1055 16.643 11.1055 16.2392C11.1055 15.8355 11.2659 15.4482 11.5514 15.1627C11.8369 14.8772 12.2241 14.7168 12.6279 14.7168C13.0317 14.7168 13.4189 14.8772 13.7044 15.1627C13.9899 15.4482 14.1503 15.8355 14.1503 16.2392Z" fill="#4C96FF"/>
<path d="M15.0099 0.669922L18.2374 5.19257L20.3658 4.46688L22.3084 10.1496H23.2848V22.3291H1.9707V10.1496H2.48833V10.1395L3.14602 10.1456L15.0099 0.669922ZM9.98582 10.1496H20.1638L19.1113 7.07126L17.5665 7.56554L9.98582 10.1496ZM8.40452 8.54294L16.2309 5.87665L14.6029 3.593L8.40452 8.54294ZM6.03053 12.1795H4.00062V14.2095C4.53898 14.2095 5.0553 13.9956 5.43598 13.6149C5.81667 13.2342 6.03053 12.7179 6.03053 12.1795ZM16.1801 16.2394C16.1801 15.7729 16.0882 15.3109 15.9097 14.8799C15.7312 14.4489 15.4695 14.0573 15.1396 13.7275C14.8098 13.3976 14.4182 13.1359 13.9872 12.9574C13.5562 12.7789 13.0943 12.687 12.6278 12.687C12.1613 12.687 11.6993 12.7789 11.2683 12.9574C10.8373 13.1359 10.4457 13.3976 10.1159 13.7275C9.786 14.0573 9.52433 14.4489 9.34581 14.8799C9.16729 15.3109 9.0754 15.7729 9.0754 16.2394C9.0754 17.1815 9.44967 18.0851 10.1159 18.7513C10.7821 19.4175 11.6856 19.7917 12.6278 19.7917C13.5699 19.7917 14.4734 19.4175 15.1396 18.7513C15.8058 18.0851 16.1801 17.1815 16.1801 16.2394ZM21.2549 20.2992V18.2693C20.7165 18.2693 20.2002 18.4831 19.8195 18.8638C19.4388 19.2445 19.225 19.7608 19.225 20.2992H21.2549ZM19.225 12.1795C19.225 12.7179 19.4388 13.2342 19.8195 13.6149C20.2002 13.9956 20.7165 14.2095 21.2549 14.2095V12.1795H19.225ZM4.00062 20.2992H6.03053C6.03053 19.7608 5.81667 19.2445 5.43598 18.8638C5.0553 18.4831 4.53898 18.2693 4.00062 18.2693V20.2992Z" fill="#4C96FF"/>
</svg>
