<svg width="87" height="36" viewBox="0 0 87 36" fill="none" xmlns="http://www.w3.org/2000/svg">
<path d="M25.2126 0.72C25.9326 1.2 26.0126 2.16 26.0126 3.08C26.0126 7.4 22.2126 15.88 18.6526 21.96C16.4526 25.64 14.2126 28.84 12.1326 31.12C9.5726 33.92 7.4126 35.28 5.4926 35.28C4.4526 35.28 0.972603 34.6 0.972603 26C0.972603 17.16 3.7726 7.16 4.6926 3.88C4.7726 3.6 4.8526 3.32 4.8926 3.12C5.0526 2.56 5.6526 2.2 6.2526 2.36C6.8526 2.52 7.1726 3.12 7.0126 3.72C6.9726 3.92 6.8926 4.16 6.8126 4.48C5.8926 7.72 3.1326 17.48 3.1326 26C3.1326 31.6 4.6926 33.12 5.4926 33.12C6.2126 33.12 7.7726 32.64 10.5326 29.64C12.4926 27.48 14.6526 24.44 16.7726 20.84C20.8526 13.84 23.8526 6.4 23.8526 3.08C23.8526 2.68 23.8126 2.48 23.8126 2.36C23.4926 2.04 23.4526 1.52 23.6926 1.08C24.0126 0.599999 24.6926 0.439999 25.2126 0.72ZM36.8218 20.6C37.3418 20.96 37.4618 21.64 37.1418 22.12C36.7818 22.64 33.5418 27.24 30.1418 27.24C29.2218 27.24 28.4218 26.88 27.8618 26.2C27.2618 25.56 26.9418 24.68 26.7818 23.8C24.6618 26.72 23.3018 27.88 22.1418 27.88C21.5018 27.88 20.3418 27.36 20.3418 25.36C20.3418 23.6 21.0618 21.48 22.2618 19.76C23.6618 17.76 25.4218 16.64 27.1818 16.64C28.6618 16.64 29.2218 17.52 29.4218 17.8V17.84C29.7418 18.36 29.6218 19.04 29.1018 19.36C28.8618 19.52 28.5818 19.56 28.3018 19.52C28.3418 19.52 28.3418 19.56 28.3418 19.56C28.3818 19.56 28.3818 19.6 28.4218 19.6C28.4618 19.64 28.4618 19.64 28.5018 19.64C28.5818 19.72 28.6218 19.84 28.7018 19.92V19.96C28.7018 19.96 28.7018 20 28.7418 20V20.04V20.08C28.7818 20.16 28.8218 20.28 28.8218 20.4C28.8218 20.44 28.8218 20.44 28.8218 20.48C28.8218 20.52 28.8218 20.56 28.8218 20.56C28.7018 21.52 28.7018 23.88 29.4618 24.76C29.6618 24.96 29.8618 25.04 30.1418 25.04C32.0618 25.04 34.5818 21.96 35.3418 20.88C35.6618 20.4 36.3418 20.28 36.8218 20.6ZM27.9018 19.36C27.7818 19.28 27.7018 19.2 27.6218 19.04C27.5818 19.04 27.5818 19 27.5418 19C27.5018 18.88 27.4618 18.84 27.1818 18.84C24.9018 18.84 22.5418 22.64 22.5418 25.36C22.5418 25.4 22.5418 25.4 22.5418 25.44C23.1418 24.92 24.3018 23.64 26.5418 20.24C26.6618 20.04 26.7818 19.92 26.8218 19.84C26.8618 19.8 26.9018 19.76 26.9018 19.72C26.9418 19.72 26.9418 19.68 26.9418 19.68C26.9818 19.64 27.0218 19.64 27.0218 19.6H27.0618C27.1018 19.56 27.1418 19.52 27.1818 19.52C27.1818 19.52 27.1818 19.52 27.1818 19.48C27.2218 19.48 27.2618 19.44 27.3018 19.44C27.3818 19.4 27.4218 19.4 27.4618 19.4C27.5018 19.36 27.5418 19.36 27.5818 19.36C27.6218 19.36 27.6218 19.36 27.6218 19.36C27.6618 19.36 27.7018 19.36 27.7418 19.36C27.7818 19.36 27.7818 19.36 27.7818 19.36C27.8218 19.36 27.8218 19.36 27.8618 19.36H27.9018ZM47.6698 20.72C48.1898 21.04 48.3098 21.72 47.9898 22.24L47.9098 22.36C46.5498 24.52 42.3098 31.08 37.8698 31.08C37.2698 31.08 34.3898 30.8 34.3898 25.44C34.3898 20.96 36.1098 15.44 39.1498 10.32C41.3498 6.56 44.5898 2.56 46.9898 2.56C47.9098 2.56 48.9898 3.2 48.9898 5.08C48.9898 7.04 47.7898 10.2 46.0298 13C44.4298 15.56 41.6298 18.88 37.5098 20.48C37.4298 20.52 37.3098 20.52 37.1898 20.52C36.7898 22.28 36.5498 23.92 36.5498 25.44C36.5498 28 37.3498 28.92 37.8698 28.92C39.3498 28.92 41.9898 27.56 46.0698 21.16L46.1498 21.04C46.5098 20.56 47.1498 20.4 47.6698 20.72ZM41.0298 11.44C39.7498 13.56 38.7498 15.72 37.9898 17.84C43.7898 14.84 46.8298 7.36 46.8298 5.08C46.8298 4.92 46.8298 4.84 46.7898 4.76C45.9098 5.04 43.5898 7.08 41.0298 11.44ZM61.5156 20.48C62.0356 20.72 62.2756 21.4 61.9956 21.92C61.4356 23.08 57.7156 27.28 54.8756 27.28C53.7556 27.28 52.2756 26.84 51.5156 24.8C51.0356 23.6 50.9556 22.2 50.8756 21.08C50.8356 20.88 50.8356 20.68 50.8356 20.52C50.3156 21 49.4756 21.88 48.1556 23.6C46.6756 25.56 45.4756 27.36 45.2356 27.84C45.0356 28.2 44.6356 28.44 44.2756 28.44C44.1556 28.44 44.0356 28.4 43.9156 28.36C43.3956 28.2 43.0756 27.68 43.1956 27.16C43.8356 23.4 46.0756 17.64 46.5156 16.76C46.7556 16.2 47.3956 15.96 47.9556 16.24C48.5156 16.48 48.7156 17.16 48.4756 17.68C48.2756 18.08 47.6756 19.6 47.0356 21.48C49.5956 18.28 50.6356 17.8 51.3956 17.8C51.7156 17.8 52.5956 17.96 52.8756 19.28C52.9556 19.72 52.9956 20.28 53.0356 20.92C53.2356 23.68 53.5956 25.08 54.8756 25.08C56.4356 25.08 59.5956 21.84 60.0356 20.96C60.3156 20.4 60.9556 20.2 61.5156 20.48ZM73.8611 20.8C74.3011 21.2 74.3411 21.88 73.9411 22.32C73.5811 22.72 67.9011 27.4 63.7411 27.4C61.4611 27.4 59.2211 26.08 59.2211 23.12C59.2211 19.64 62.2611 17.32 64.2611 17.32C66.0611 17.32 66.9011 18.64 66.9011 19.88C66.9011 20.88 65.9811 21.84 65.7011 22.12C64.9011 22.96 63.9011 23.4 62.9811 23.4C62.3811 23.4 61.9411 23.36 61.3811 23.24C61.4611 25.04 63.0211 25.24 63.7411 25.24C66.7411 25.24 71.7011 21.52 72.3411 20.88C72.7411 20.44 73.4211 20.4 73.8611 20.8ZM64.2611 19.52C63.6611 19.52 62.6211 20.08 61.9411 21.12C62.3411 21.2 62.6211 21.24 62.9811 21.24C63.7011 21.24 64.5811 20.24 64.7411 19.84C64.7011 19.6 64.5811 19.52 64.2611 19.52ZM85.9447 20.8C86.3847 21.2 86.4247 21.88 86.0247 22.32C85.6647 22.72 79.9847 27.4 75.8247 27.4C73.5447 27.4 71.3047 26.08 71.3047 23.12C71.3047 19.64 74.3447 17.32 76.3447 17.32C78.1447 17.32 78.9847 18.64 78.9847 19.88C78.9847 20.88 78.0647 21.84 77.7847 22.12C76.9847 22.96 75.9847 23.4 75.0647 23.4C74.4647 23.4 74.0247 23.36 73.4647 23.24C73.5447 25.04 75.1047 25.24 75.8247 25.24C78.8247 25.24 83.7847 21.52 84.4247 20.88C84.8247 20.44 85.5047 20.4 85.9447 20.8ZM76.3447 19.52C75.7447 19.52 74.7047 20.08 74.0247 21.12C74.4247 21.2 74.7047 21.24 75.0647 21.24C75.7847 21.24 76.6647 20.24 76.8247 19.84C76.7847 19.6 76.6647 19.52 76.3447 19.52Z" fill="white"/>
</svg>
